<svg width="278" height="255" viewBox="0 0 278 255" fill="none" xmlns="http://www.w3.org/2000/svg">
<path d="M250.144 237.045H231.73V237.218H250.144V237.045Z" fill="#EBEBEB"/>
<path d="M184.158 238.922H179.327V239.095H184.158V238.922Z" fill="#EBEBEB"/>
<path d="M231.174 230.642H220.504V230.814H231.174V230.642Z" fill="#EBEBEB"/>
<path d="M53.1814 231.801H29.1677V231.973H53.1814V231.801Z" fill="#EBEBEB"/>
<path d="M61.6549 231.801H58.1354V231.973H61.6549V231.801Z" fill="#EBEBEB"/>
<path d="M125.183 234.713H73.0973V234.885H125.183V234.713Z" fill="#EBEBEB"/>
<path d="M132.55 195.163H25.1868C24.3448 195.163 23.5373 194.748 22.942 194.009C22.3466 193.27 22.0121 192.267 22.0121 191.222V3.90602C22.0194 2.86692 22.3571 1.87347 22.9517 1.14193C23.5463 0.410382 24.3496 -3.98372e-05 25.1868 2.90022e-09H132.55C132.967 2.90022e-09 133.38 0.101924 133.765 0.299953C134.151 0.497983 134.501 0.788241 134.795 1.15415C135.09 1.52006 135.324 1.95446 135.484 2.43255C135.643 2.91064 135.725 3.42304 135.725 3.94052V191.222C135.725 191.74 135.643 192.252 135.484 192.73C135.324 193.208 135.09 193.643 134.795 194.009C134.501 194.375 134.151 194.665 133.765 194.863C133.38 195.061 132.967 195.163 132.55 195.163ZM25.1868 0.138022C24.3822 0.139847 23.6109 0.537416 23.0419 1.24366C22.4729 1.9499 22.1526 2.90724 22.1511 3.90602V191.222C22.1526 192.221 22.4729 193.178 23.0419 193.885C23.6109 194.591 24.3822 194.988 25.1868 194.99H132.55C133.355 194.988 134.126 194.591 134.695 193.885C135.264 193.178 135.585 192.221 135.586 191.222V3.90602C135.585 2.90724 135.264 1.9499 134.695 1.24366C134.126 0.537416 133.355 0.139847 132.55 0.138022H25.1868Z" fill="#EBEBEB"/>
<path d="M252.813 195.163H145.45C144.608 195.163 143.8 194.748 143.205 194.009C142.609 193.27 142.275 192.267 142.275 191.222V3.90602C142.282 2.86692 142.62 1.87347 143.214 1.14193C143.809 0.410382 144.612 -3.98372e-05 145.45 2.90022e-09H252.813C253.655 2.90023e-09 254.463 0.415161 255.058 1.15415C255.653 1.89314 255.988 2.89543 255.988 3.94052V191.222C255.988 192.267 255.653 193.27 255.058 194.009C254.463 194.748 253.655 195.163 252.813 195.163ZM145.45 0.138022C144.645 0.139847 143.874 0.537416 143.305 1.24366C142.736 1.9499 142.415 2.90724 142.414 3.90602V191.222C142.415 192.221 142.736 193.178 143.305 193.885C143.874 194.591 144.645 194.988 145.45 194.99H252.813C253.618 194.988 254.389 194.591 254.958 193.885C255.527 193.178 255.847 192.221 255.849 191.222V3.90602C255.847 2.90724 255.527 1.9499 254.958 1.24366C254.389 0.537416 253.618 0.139847 252.813 0.138022H145.45Z" fill="#EBEBEB"/>
<path d="M278 225.941H0V226.114H278V225.941Z" fill="#EBEBEB"/>
<path d="M229.189 132.266H218.73V145.247H229.189V132.266Z" fill="#F5F5F5"/>
<path d="M235.622 132.266H229.194V145.247H235.622V132.266Z" fill="#EBEBEB"/>
<path d="M231.763 132.266V137.18L231.93 136.986L232.225 137.221L232.48 136.986L232.808 137.221L233.159 136.986L233.381 137.221L233.637 137.049V132.266H231.763Z" fill="#E0E0E0"/>
<path opacity="0.7" d="M231.763 132.266V137.18L231.93 136.986L232.225 137.221L232.48 136.986L232.808 137.221L233.159 136.986L233.381 137.221L233.637 137.049V132.266H231.763Z" fill="#E0E0E0"/>
<path d="M229.661 147.642H215.978V164.626H229.661V147.642Z" fill="#F5F5F5"/>
<path d="M238.068 147.642H229.661V164.626H238.068V147.642Z" fill="#E6E6E6"/>
<path d="M227.048 152.418H213.365L215.978 147.642H229.661L227.048 152.418Z" fill="#E6E6E6"/>
<path d="M232.141 152.418H240.542L238.068 147.642H229.661L232.141 152.418Z" fill="#F5F5F5"/>
<path d="M56.4452 149.409C60.6336 149.409 64.029 145.194 64.029 139.996C64.029 134.797 60.6336 130.583 56.4452 130.583C52.2567 130.583 48.8613 134.797 48.8613 139.996C48.8613 145.194 52.2567 149.409 56.4452 149.409Z" fill="#E0E0E0"/>
<path d="M55.2663 149.409C59.4548 149.409 62.8502 145.194 62.8502 139.996C62.8502 134.797 59.4548 130.583 55.2663 130.583C51.0779 130.583 47.6825 134.797 47.6825 139.996C47.6825 145.194 51.0779 149.409 55.2663 149.409Z" fill="#EBEBEB"/>
<path opacity="0.2" d="M59.3912 145.113C61.6689 142.286 61.6689 137.702 59.3911 134.875C57.1134 132.048 53.4205 132.048 51.1428 134.875C48.8651 137.702 48.8651 142.286 51.1428 145.113C53.4205 147.94 57.1134 147.94 59.3912 145.113Z" fill="white"/>
<path d="M50.3235 139.995C50.3236 138.172 50.879 136.417 51.8781 135.081C52.8773 133.744 54.2465 132.926 55.7111 132.791C55.561 132.791 55.4165 132.791 55.2663 132.791C53.718 132.791 52.2331 133.554 51.1383 134.913C50.0434 136.272 49.4283 138.115 49.4283 140.037C49.4283 141.958 50.0434 143.802 51.1383 145.16C52.2331 146.519 53.718 147.283 55.2663 147.283C55.4165 147.283 55.561 147.283 55.7111 147.283C54.2354 147.144 52.8574 146.314 51.8568 144.961C50.8562 143.607 50.308 141.832 50.3235 139.995Z" fill="#E0E0E0"/>
<path d="M57.4181 142.618C56.9992 143.073 56.4723 143.347 55.9169 143.398V144.598H55.044V143.425C54.6282 143.401 54.2168 143.308 53.8208 143.149C53.4858 143.021 53.1702 142.825 52.8867 142.569L53.3649 141.251C53.6023 141.465 53.8623 141.637 54.1377 141.762C54.4298 141.895 54.7343 141.981 55.044 142.017V140.223C54.6888 140.121 54.341 139.983 54.0043 139.809C53.727 139.667 53.4825 139.442 53.2926 139.153C53.0922 138.82 52.9919 138.41 53.009 137.994C53.006 137.708 53.051 137.424 53.1409 137.16C53.2309 136.896 53.3639 136.659 53.5317 136.462C53.9501 135.997 54.4833 135.722 55.044 135.682V134.488H55.9114V135.661C56.5332 135.698 57.1384 135.923 57.6739 136.317L57.2402 137.642C56.8333 137.343 56.3808 137.153 55.9114 137.083V138.912C56.2628 139.002 56.6071 139.132 56.94 139.298C57.2134 139.445 57.4552 139.67 57.6461 139.954C57.8448 140.286 57.945 140.693 57.9296 141.106C57.9318 141.388 57.8875 141.668 57.7995 141.928C57.7116 142.187 57.5818 142.422 57.4181 142.618ZM54.577 138.346C54.7169 138.483 54.8776 138.584 55.0496 138.643V137.111C54.8674 137.153 54.6992 137.261 54.5658 137.421C54.4638 137.553 54.4078 137.729 54.4102 137.911C54.4084 137.995 54.4226 138.078 54.4516 138.153C54.4806 138.229 54.5235 138.295 54.577 138.346ZM56.384 141.693C56.4346 141.634 56.4747 141.562 56.5015 141.482C56.5283 141.403 56.5413 141.317 56.5396 141.231C56.5419 141.147 56.5291 141.064 56.5021 140.988C56.4752 140.911 56.4348 140.844 56.384 140.789C56.244 140.656 56.0858 140.555 55.9169 140.492V141.976C56.092 141.942 56.2548 141.844 56.384 141.693Z" fill="#E0E0E0"/>
<path d="M155.519 64.4907C159.707 64.4907 163.103 60.2763 163.103 55.0776C163.103 49.8789 159.707 45.6646 155.519 45.6646C151.33 45.6646 147.935 49.8789 147.935 55.0776C147.935 60.2763 151.33 64.4907 155.519 64.4907Z" fill="#E0E0E0"/>
<path d="M154.334 64.4907C158.523 64.4907 161.918 60.2763 161.918 55.0776C161.918 49.8789 158.523 45.6646 154.334 45.6646C150.146 45.6646 146.751 49.8789 146.751 55.0776C146.751 60.2763 150.146 64.4907 154.334 64.4907Z" fill="#EBEBEB"/>
<path opacity="0.2" d="M158.461 60.201C160.738 57.3739 160.738 52.7902 158.461 49.9631C156.183 47.136 152.49 47.136 150.212 49.9631C147.935 52.7902 147.935 57.3738 150.212 60.2009C152.49 63.028 156.183 63.0281 158.461 60.201Z" fill="white"/>
<path d="M149.392 55.0778C149.393 53.2546 149.949 51.4991 150.947 50.1621C151.946 48.8252 153.315 48.0053 154.779 47.8662C154.635 47.8662 154.485 47.8662 154.334 47.8662C152.786 47.8662 151.301 48.6296 150.206 49.9886C149.112 51.3475 148.496 53.1906 148.496 55.1124C148.496 57.0341 149.112 58.8772 150.206 60.2361C151.301 61.5951 152.786 62.3585 154.334 62.3585C154.485 62.3585 154.635 62.3585 154.779 62.3585C153.304 62.2218 151.926 61.3931 150.925 60.0408C149.925 58.6884 149.376 56.9139 149.392 55.0778Z" fill="#E0E0E0"/>
<path d="M156.486 57.6932C156.07 58.154 155.541 58.4285 154.985 58.473V59.6807H154.123V58.5075C153.707 58.482 153.296 58.3869 152.9 58.2246C152.563 58.0979 152.245 57.9019 151.96 57.6449L152.438 56.3337C152.677 56.5438 152.937 56.7132 153.211 56.8375C153.505 56.9734 153.811 57.0616 154.123 57.0997V55.2985C153.766 55.2017 153.416 55.0654 153.078 54.8914C152.801 54.7363 152.558 54.4994 152.372 54.2013C152.168 53.872 152.066 53.4634 152.083 53.0488C152.083 52.7582 152.133 52.471 152.229 52.2059C152.324 51.9407 152.464 51.7036 152.639 51.5098C153.058 51.0476 153.591 50.7731 154.151 50.73V49.5361H155.013V50.7093C155.634 50.748 156.239 50.9729 156.775 51.3649L156.342 52.6899C155.935 52.391 155.482 52.2007 155.013 52.1309V53.9597C155.364 54.0555 155.708 54.187 156.041 54.3531C156.318 54.4936 156.561 54.7192 156.747 55.0087C156.949 55.3367 157.051 55.7422 157.037 56.1543C157.037 56.4443 156.988 56.7312 156.893 56.9963C156.798 57.2615 156.66 57.4989 156.486 57.6932ZM153.645 53.4283C153.786 53.5655 153.949 53.6643 154.123 53.7182V52.1931C153.94 52.2322 153.769 52.3378 153.634 52.4967C153.532 52.6281 153.476 52.8042 153.478 52.9867C153.477 53.0712 153.491 53.155 153.52 53.2316C153.549 53.3082 153.592 53.3755 153.645 53.4283ZM155.458 56.7754C155.554 56.6509 155.61 56.4859 155.613 56.313C155.614 56.2292 155.601 56.146 155.573 56.0696C155.545 55.9933 155.504 55.9255 155.452 55.8713C155.313 55.7342 155.155 55.6312 154.985 55.5677V57.0514C155.16 57.0153 155.324 56.9197 155.458 56.7754Z" fill="#E0E0E0"/>
<path d="M102.248 157.242C105.261 157.242 107.703 154.211 107.703 150.472C107.703 146.733 105.261 143.702 102.248 143.702C99.2359 143.702 96.7939 146.733 96.7939 150.472C96.7939 154.211 99.2359 157.242 102.248 157.242Z" fill="#E0E0E0"/>
<path d="M101.398 157.242C104.41 157.242 106.852 154.211 106.852 150.472C106.852 146.733 104.41 143.702 101.398 143.702C98.3854 143.702 95.9434 146.733 95.9434 150.472C95.9434 154.211 98.3854 157.242 101.398 157.242Z" fill="#F5F5F5"/>
<path opacity="0.2" d="M101.398 155.675C103.713 155.675 105.59 153.345 105.59 150.471C105.59 147.598 103.713 145.268 101.398 145.268C99.0825 145.268 97.2056 147.598 97.2056 150.471C97.2056 153.345 99.0825 155.675 101.398 155.675Z" fill="white"/>
<path d="M97.856 150.444C97.8574 149.129 98.2593 147.863 98.9812 146.901C99.703 145.938 100.691 145.35 101.748 145.254C101.642 145.254 101.537 145.254 101.426 145.254C100.339 145.303 99.3109 145.874 98.5565 146.845C97.8021 147.816 97.3805 149.112 97.3805 150.461C97.3805 151.81 97.8021 153.107 98.5565 154.078C99.3109 155.049 100.339 155.619 101.426 155.668C101.533 155.675 101.641 155.675 101.748 155.668C100.686 155.574 99.693 154.981 98.9702 154.011C98.2474 153.041 97.8491 151.765 97.856 150.444Z" fill="#E0E0E0"/>
<path d="M102.949 152.356C102.645 152.681 102.265 152.877 101.865 152.915V153.784H101.242V152.935C100.943 152.919 100.648 152.851 100.364 152.735C100.123 152.644 99.8953 152.504 99.6908 152.321L100.036 151.376C100.206 151.529 100.393 151.652 100.592 151.741C100.801 151.838 101.02 151.899 101.242 151.921V150.63C100.987 150.558 100.738 150.459 100.497 150.334C100.297 150.235 100.12 150.073 99.9855 149.864C99.8404 149.624 99.7676 149.329 99.7798 149.029C99.7774 148.823 99.8098 148.618 99.8749 148.428C99.94 148.237 100.036 148.066 100.158 147.925C100.466 147.587 100.859 147.39 101.27 147.366V146.503H101.893V147.352C102.34 147.377 102.775 147.538 103.16 147.822L102.849 148.774C102.556 148.558 102.23 148.422 101.893 148.374V149.685C102.145 149.753 102.392 149.847 102.632 149.968C102.832 150.071 103.008 150.235 103.144 150.444C103.286 150.68 103.359 150.97 103.349 151.265C103.347 151.471 103.31 151.675 103.241 151.862C103.172 152.05 103.073 152.218 102.949 152.356ZM100.903 149.285C101.003 149.382 101.119 149.453 101.242 149.492V148.374C101.112 148.402 100.991 148.479 100.897 148.594C100.823 148.688 100.781 148.815 100.781 148.946C100.776 149.011 100.785 149.076 100.806 149.135C100.828 149.194 100.861 149.246 100.903 149.285ZM102.204 151.693C102.275 151.603 102.315 151.481 102.315 151.355C102.316 151.296 102.306 151.237 102.285 151.183C102.265 151.129 102.235 151.082 102.198 151.044C102.101 150.943 101.987 150.868 101.865 150.823V151.893C101.991 151.867 102.108 151.797 102.204 151.693Z" fill="#E0E0E0"/>
<path d="M120.437 31.7388C122.567 29.0949 122.567 24.8084 120.437 22.1646C118.307 19.5207 114.853 19.5207 112.723 22.1646C110.593 24.8084 110.593 29.0949 112.723 31.7387C114.853 34.3826 118.307 34.3826 120.437 31.7388Z" fill="#E0E0E0"/>
<path d="M119.585 31.7471C121.715 29.1032 121.715 24.8167 119.585 22.1729C117.455 19.529 114.002 19.529 111.872 22.1729C109.742 24.8167 109.742 29.1032 111.872 31.747C114.002 34.3909 117.455 34.3909 119.585 31.7471Z" fill="#F5F5F5"/>
<path opacity="0.2" d="M115.731 32.1588C118.047 32.1588 119.924 29.8291 119.924 26.9554C119.924 24.0816 118.047 21.752 115.731 21.752C113.416 21.752 111.539 24.0816 111.539 26.9554C111.539 29.8291 113.416 32.1588 115.731 32.1588Z" fill="white"/>
<path d="M112.173 26.9554C112.174 25.6412 112.577 24.3763 113.299 23.4149C114.021 22.4535 115.009 21.8669 116.065 21.7727C115.959 21.7659 115.854 21.7659 115.748 21.7727C114.662 21.8218 113.633 22.3919 112.879 23.363C112.125 24.3341 111.703 25.6306 111.703 26.9796C111.703 28.3286 112.125 29.6251 112.879 30.5962C113.633 31.5673 114.662 32.1374 115.748 32.1865C115.854 32.1865 115.959 32.1865 116.065 32.1865C115.003 32.0886 114.011 31.4941 113.288 30.5232C112.566 29.5522 112.167 28.2771 112.173 26.9554Z" fill="#E0E0E0"/>
<path d="M117.277 28.8394C116.978 29.1702 116.598 29.3671 116.198 29.3983V30.2679H115.576V29.426C115.277 29.406 114.982 29.3387 114.697 29.2258C114.456 29.1323 114.229 28.9901 114.025 28.8049L114.369 27.8594C114.539 28.0145 114.726 28.1377 114.925 28.2252C115.137 28.3206 115.357 28.3831 115.581 28.4115V27.1141C115.326 27.0472 115.077 26.9502 114.836 26.8242C114.637 26.7203 114.461 26.5567 114.325 26.3481C114.179 26.1087 114.106 25.8128 114.119 25.513C114.116 25.3081 114.148 25.1047 114.212 24.9157C114.276 24.7268 114.372 24.5566 114.492 24.4158C114.799 24.0752 115.192 23.8755 115.604 23.8499V22.9941H116.204V23.8361C116.651 23.8611 117.087 24.0223 117.472 24.3053L117.16 25.2577C116.868 25.0402 116.542 24.8993 116.204 24.8436V26.1617C116.457 26.2265 116.705 26.3213 116.944 26.4447C117.142 26.5472 117.318 26.7082 117.455 26.914C117.598 27.1502 117.67 27.4402 117.661 27.7352C117.663 27.9424 117.63 28.1479 117.564 28.3382C117.498 28.5285 117.4 28.6993 117.277 28.8394ZM115.231 25.7684C115.335 25.864 115.452 25.9364 115.576 25.9823V24.8781C115.445 24.9112 115.324 24.9875 115.225 25.099C115.154 25.1951 115.115 25.3205 115.114 25.4509C115.113 25.5114 115.123 25.5715 115.143 25.6266C115.163 25.6817 115.193 25.7302 115.231 25.7684ZM116.538 28.1769C116.573 28.1339 116.602 28.0823 116.621 28.0254C116.64 27.9685 116.649 27.9073 116.649 27.8456C116.65 27.7851 116.641 27.725 116.62 27.6699C116.6 27.6149 116.57 27.5664 116.532 27.5282C116.434 27.4296 116.32 27.3568 116.198 27.3142V28.377C116.325 28.352 116.442 28.2825 116.538 28.1769Z" fill="#E0E0E0"/>
<path d="M68.5992 183.065L60.9932 180.118L69.4833 180.677C67.6207 176.654 66.7922 174.673 65.3133 170.823C67.4372 173.825 68.5436 175.35 70.8733 178.414C71.4742 173.946 72.3573 169.543 73.5143 165.247C72.9545 169.07 72.7123 172.955 72.7915 176.84L72.9472 176.882C75.4672 173.339 78.1994 170.038 81.1204 167.006C78.3295 170.719 75.8483 174.772 73.7144 179.104C76.8762 177.623 80.0621 176.212 83.2721 174.874C80.0584 177.054 76.917 179.304 73.7812 181.664L81.643 184.777L73.5143 184.162C75.2268 186.654 76.1164 187.91 77.9623 190.429C75.6771 188.558 74.5484 187.627 72.3189 185.764C72.5642 188.358 72.9356 190.933 73.4309 193.472C72.3189 190.325 71.8296 188.759 70.9734 185.674C69.3776 195.149 69.7946 204.307 71.3348 213.754L69.4221 213.326C68.2967 204.074 68.6005 194.64 70.3173 185.529C68.3935 187.993 67.4928 189.242 65.8248 191.74C66.7902 189.415 67.869 187.166 69.0552 185.004C66.3141 185.75 64.963 186.129 62.2775 186.888C64.7406 185.356 66.0027 184.583 68.5992 183.065Z" fill="#EBEBEB"/>
<path d="M65.9027 186.329L72.9305 181.706L64.6739 184.259C65.8971 179.877 66.4198 177.737 67.2871 173.611C65.6525 177.061 64.7962 178.807 62.9781 182.382C61.7091 178.118 60.1716 173.986 58.38 170.022C59.5055 173.648 60.329 177.408 60.8375 181.243L60.6874 181.312C57.6759 178.402 54.4921 175.776 51.1631 173.459C54.4597 176.464 57.5052 179.871 60.2537 183.631C56.9177 182.909 53.5817 182.262 50.2457 181.692C53.7318 183.072 57.1568 184.569 60.5929 186.164L53.3315 191.043L61.2267 188.558C59.9201 191.402 59.2362 192.837 57.8018 195.742C59.77 193.375 60.7374 192.195 62.6445 189.856C62.7952 192.46 62.8174 195.074 62.7112 197.682C63.3284 194.335 63.573 192.685 63.9511 189.449C66.9424 198.42 67.921 207.509 67.8431 217.122L69.6557 216.259C69.3684 206.907 67.6514 197.708 64.5961 189.152C66.859 191.132 67.9321 192.154 69.9504 194.245C68.6512 192.187 67.2531 190.228 65.7637 188.379C68.5437 188.475 69.9559 188.531 72.7026 188.655C70.056 187.709 68.6771 187.233 65.9027 186.329Z" fill="#F0F0F0"/>
<path d="M72.7748 191.526L67.6541 188.158L73.67 189.987C72.7748 186.799 72.3967 185.239 71.7629 182.23C72.9527 184.736 73.581 186.012 74.9043 188.621C75.8254 185.527 76.9408 182.527 78.2403 179.649C77.4206 182.293 76.8207 185.033 76.45 187.827L76.5612 187.882C78.7562 185.758 81.0776 183.843 83.5056 182.155C81.0999 184.345 78.8777 186.831 76.8725 189.573C79.3041 189.044 81.7412 188.573 84.1839 188.158C81.643 189.18 79.1466 190.229 76.6446 191.416L81.9321 194.97L76.172 193.148C77.1227 195.218 77.6231 196.267 78.6684 198.386C77.2395 196.661 76.5334 195.798 75.1378 194.093C75.0281 195.993 75.0133 197.899 75.0933 199.801C74.643 197.358 74.4595 196.157 74.187 193.797C72.0075 200.318 71.2959 206.964 71.3681 213.969L70.0449 213.341C70.2508 206.523 71.5039 199.817 73.7367 193.583C72.0687 195.025 71.3014 195.77 69.8447 197.295C70.7919 195.794 71.8112 194.366 72.8971 193.017C70.8566 193.093 69.8447 193.134 67.8375 193.224C69.7613 192.541 70.751 192.182 72.7748 191.526Z" fill="#F5F5F5"/>
<path d="M75.1155 225.928H62.7668L61.5547 201.505H76.3276L75.1155 225.928Z" fill="#EBEBEB"/>
<path d="M77.284 202.761H60.4761L60.1759 199.511H77.5843L77.284 202.761Z" fill="#F5F5F5"/>
<path d="M208.1 225.859H231.151V173.859H208.1V225.859Z" fill="#F0F0F0"/>
<path d="M201.578 225.859H208.1V173.859H201.578V225.859Z" fill="#E6E6E6"/>
<path d="M210.318 191.761H228.755V178.048H210.318V191.761Z" fill="#FAFAFA"/>
<path d="M210.318 206.971H228.755V193.258H210.318V206.971Z" fill="#FAFAFA"/>
<path d="M210.318 222.174H228.755V208.461H210.318V222.174Z" fill="#FAFAFA"/>
<path d="M218.603 181.098C218.603 181.4 218.675 181.695 218.81 181.946C218.945 182.197 219.137 182.392 219.361 182.507C219.586 182.623 219.833 182.653 220.071 182.594C220.309 182.535 220.528 182.39 220.7 182.177C220.872 181.964 220.989 181.692 221.036 181.396C221.084 181.1 221.06 180.793 220.967 180.515C220.874 180.236 220.716 179.998 220.514 179.83C220.312 179.663 220.074 179.573 219.831 179.573C219.505 179.573 219.193 179.734 218.962 180.02C218.732 180.306 218.603 180.694 218.603 181.098Z" fill="#E0E0E0"/>
<path d="M219.242 181.098C219.242 181.4 219.314 181.695 219.449 181.946C219.584 182.197 219.776 182.392 220 182.507C220.225 182.623 220.472 182.653 220.71 182.594C220.949 182.535 221.168 182.39 221.34 182.177C221.511 181.964 221.628 181.692 221.676 181.396C221.723 181.1 221.699 180.793 221.606 180.515C221.513 180.236 221.355 179.998 221.153 179.83C220.951 179.663 220.714 179.573 220.471 179.573C220.145 179.573 219.832 179.734 219.602 180.02C219.371 180.306 219.242 180.694 219.242 181.098Z" fill="#F0F0F0"/>
<path d="M218.603 196.253C218.603 196.555 218.675 196.85 218.81 197.1C218.945 197.351 219.137 197.547 219.361 197.662C219.586 197.778 219.833 197.808 220.071 197.749C220.309 197.69 220.528 197.545 220.7 197.332C220.872 197.118 220.989 196.847 221.036 196.551C221.084 196.255 221.06 195.948 220.967 195.67C220.874 195.391 220.716 195.153 220.514 194.985C220.312 194.817 220.074 194.728 219.831 194.728C219.505 194.728 219.193 194.889 218.962 195.175C218.732 195.461 218.603 195.849 218.603 196.253Z" fill="#E0E0E0"/>
<path d="M219.242 196.253C219.242 196.555 219.314 196.85 219.449 197.1C219.584 197.351 219.776 197.547 220 197.662C220.225 197.778 220.472 197.808 220.71 197.749C220.949 197.69 221.168 197.545 221.34 197.332C221.511 197.118 221.628 196.847 221.676 196.551C221.723 196.255 221.699 195.948 221.606 195.67C221.513 195.391 221.355 195.153 221.153 194.985C220.951 194.817 220.714 194.728 220.471 194.728C220.145 194.728 219.832 194.889 219.602 195.175C219.371 195.461 219.242 195.849 219.242 196.253Z" fill="#F0F0F0"/>
<path d="M218.603 211.401C218.603 211.703 218.675 211.998 218.81 212.248C218.945 212.499 219.137 212.695 219.361 212.81C219.586 212.926 219.833 212.956 220.071 212.897C220.309 212.838 220.528 212.693 220.7 212.48C220.872 212.266 220.989 211.995 221.036 211.699C221.084 211.403 221.06 211.096 220.967 210.817C220.874 210.539 220.716 210.301 220.514 210.133C220.312 209.965 220.074 209.876 219.831 209.876C219.505 209.876 219.193 210.037 218.962 210.323C218.732 210.609 218.603 210.997 218.603 211.401Z" fill="#E0E0E0"/>
<path d="M219.242 211.401C219.242 211.703 219.314 211.998 219.449 212.248C219.584 212.499 219.776 212.695 220 212.81C220.225 212.926 220.472 212.956 220.71 212.897C220.949 212.838 221.168 212.693 221.34 212.48C221.511 212.266 221.628 211.995 221.676 211.699C221.723 211.403 221.699 211.096 221.606 210.817C221.513 210.539 221.355 210.301 221.153 210.133C220.951 209.965 220.714 209.876 220.471 209.876C220.145 209.876 219.832 210.037 219.602 210.323C219.371 210.609 219.242 210.997 219.242 211.401Z" fill="#F0F0F0"/>
<path d="M88.5263 41.9378C86.9472 42.7384 81.7041 41.7722 81.7041 41.7722L81.1481 42.069C79.6057 42.8826 77.936 43.2567 76.2617 43.1635C74.5874 43.0704 72.9513 42.5124 71.4737 41.5307C71.4737 41.5307 67.1647 41.7446 65.7692 41.3927C63.6397 40.8613 60.4649 38.7702 61.26 32.1728C62.0551 25.5754 70.0281 31.2826 70.0281 31.2826C70.0281 31.2826 67.7263 22.0006 75.4936 24.8024C77.6841 25.5532 79.6477 27.0888 81.139 29.2171C82.6302 31.3455 83.583 33.9722 83.8781 36.7689C83.8781 36.7689 95.9767 38.1491 88.5263 41.9378Z" fill="#F5F5F5"/>
<path d="M67.4039 50.5231C66.2919 51.0752 62.6834 50.4126 62.6834 50.4126L62.2942 50.6197C61.2297 51.1778 60.078 51.4334 58.9236 51.3677C57.7692 51.302 56.6412 50.9168 55.6222 50.2401C54.3062 50.3242 52.987 50.292 51.6746 50.1435C50.2012 49.7777 48.005 48.3285 48.5555 43.7669C49.1059 39.2053 54.6214 43.1527 54.6214 43.1527C54.6214 43.1527 53.0313 36.7278 58.4022 38.667C59.9188 39.1855 61.2785 40.2478 62.311 41.7208C63.3435 43.1939 64.003 45.0123 64.2069 46.9483C64.2069 46.9483 72.5636 47.9007 67.4039 50.5231Z" fill="#F0F0F0"/>
<path d="M147.49 69.2385C145.911 70.039 140.668 69.0798 140.668 69.0798L140.112 69.3765C138.569 70.1891 136.899 70.562 135.225 70.4677C133.551 70.3733 131.915 69.8141 130.438 68.8313C130.438 68.8313 126.129 69.0453 124.733 68.6933C122.603 68.1619 119.434 66.0709 120.224 59.4804C121.013 52.8898 128.992 58.5832 128.992 58.5832C128.992 58.5832 126.69 49.3012 134.457 52.11C136.648 52.8587 138.612 54.3927 140.103 56.52C141.594 58.6474 142.547 61.2735 142.842 64.0696C142.842 64.0696 154.94 65.4498 147.49 69.2385Z" fill="#F5F5F5"/>
<path d="M215.467 41.8826C215.231 39.6598 214.472 37.5728 213.285 35.8826C212.098 34.1924 210.536 32.974 208.795 32.3798C205.764 31.2825 204.664 32.5109 204.347 34.036C202.375 31.0359 199.696 28.8782 196.685 27.8665C186.582 24.2227 189.596 36.2858 189.596 36.2858C189.596 36.2858 179.227 28.874 178.198 37.4521C177.169 46.0301 181.256 48.7423 184.036 49.4324C185.854 49.8878 191.453 49.6118 191.453 49.6118C193.374 50.8878 195.501 51.6123 197.678 51.7317C199.855 51.8511 202.025 51.3625 204.03 50.3019L204.769 49.9154C204.769 49.9154 211.586 51.1714 213.637 50.1294C216.884 48.4731 217.274 47.1757 216.356 46.1819C217.295 46.3227 218.246 46.2526 219.164 45.9749C225.085 42.9798 215.467 41.8826 215.467 41.8826Z" fill="#F5F5F5"/>
<path d="M136.32 254.45C195.858 254.45 244.123 250.953 244.123 246.638C244.123 242.324 195.858 238.826 136.32 238.826C76.7822 238.826 28.5172 242.324 28.5172 246.638C28.5172 250.953 76.7822 254.45 136.32 254.45Z" fill="#F5F5F5"/>
<path d="M187.656 64.1801C181.894 55.685 174.753 48.7942 166.699 43.958C158.645 39.1219 149.86 36.4491 140.918 36.1143C131.975 35.7795 123.076 37.7903 114.802 42.0152C106.529 46.2402 99.0659 52.5842 92.9021 60.633C92.7519 60.8322 92.5444 60.9498 92.3247 60.9602C92.105 60.9705 91.8909 60.8727 91.7289 60.6882C91.648 60.5946 91.5827 60.482 91.537 60.357C91.4912 60.232 91.4657 60.097 91.4621 59.9598C91.4585 59.8225 91.4768 59.6858 91.5159 59.5573C91.555 59.4289 91.6142 59.3113 91.69 59.2113C98.0149 50.9509 105.673 44.4396 114.163 40.103C122.654 35.7663 131.786 33.7018 140.963 34.0444C150.14 34.387 159.156 37.129 167.421 42.0911C175.687 47.0532 183.015 54.124 188.929 62.8413L187.656 64.1801Z" fill="#263238"/>
<path d="M189.129 64.3109H183.936C183.715 64.3109 183.502 64.2018 183.346 64.0077C183.19 63.8135 183.102 63.5502 183.102 63.2757C183.102 63.0011 183.19 62.7378 183.346 62.5437C183.502 62.3496 183.715 62.2405 183.936 62.2405H187.461V57.8652C187.461 57.5907 187.549 57.3274 187.705 57.1333C187.862 56.9391 188.074 56.8301 188.295 56.8301C188.516 56.8319 188.727 56.9415 188.883 57.1353C189.039 57.329 189.127 57.5913 189.129 57.8652V64.3109Z" fill="#263238"/>
<path d="M175.696 182.003L174.756 180.291C182.081 174.108 188.284 166.094 192.969 156.763C197.653 147.432 200.716 136.989 201.961 126.104C201.992 125.834 202.106 125.59 202.28 125.424C202.453 125.258 202.672 125.182 202.89 125.214C203.112 125.25 203.313 125.393 203.449 125.613C203.586 125.833 203.647 126.111 203.618 126.387C202.34 137.559 199.196 148.277 194.388 157.854C189.58 167.431 183.213 175.656 175.696 182.003Z" fill="#263238"/>
<path d="M178.682 183.714L173.628 182.265L174.795 175.985C174.82 175.853 174.865 175.728 174.928 175.618C174.991 175.507 175.071 175.413 175.164 175.342C175.256 175.27 175.359 175.221 175.467 175.199C175.574 175.177 175.684 175.181 175.791 175.212C175.898 175.242 175.999 175.298 176.088 175.377C176.178 175.456 176.254 175.556 176.312 175.671C176.371 175.786 176.41 175.915 176.429 176.049C176.447 176.184 176.443 176.321 176.419 176.454L175.624 180.712L179.06 181.692C179.275 181.754 179.461 181.92 179.578 182.153C179.695 182.386 179.733 182.667 179.683 182.934C179.632 183.202 179.499 183.433 179.311 183.58C179.124 183.726 178.898 183.774 178.682 183.714Z" fill="#263238"/>
<path d="M90.7058 169.505C82.2901 158.053 76.7131 143.832 74.6429 128.547L76.2831 128.202C78.3 143.097 83.7364 156.954 91.9401 168.111C92.0875 168.312 92.1653 168.578 92.157 168.85C92.1487 169.122 92.0549 169.379 91.8956 169.567C91.8144 169.66 91.7191 169.732 91.6152 169.78C91.5113 169.827 91.4009 169.849 91.2903 169.843C91.1797 169.837 91.0711 169.804 90.9708 169.746C90.8705 169.688 90.7804 169.606 90.7058 169.505Z" fill="#263238"/>
<path d="M72.2076 132.045C72.0284 131.884 71.908 131.64 71.8726 131.369C71.8372 131.098 71.8897 130.82 72.0186 130.596L75.0711 125.386L79.2689 129.174C79.3576 129.254 79.4327 129.354 79.49 129.47C79.5473 129.586 79.5856 129.714 79.6027 129.848C79.6197 129.982 79.6152 130.119 79.5894 130.251C79.5636 130.383 79.517 130.507 79.4523 130.617C79.3884 130.727 79.3075 130.82 79.2143 130.891C79.1212 130.962 79.0176 131.01 78.9095 131.031C78.8015 131.052 78.6912 131.047 78.5849 131.015C78.4786 130.983 78.3785 130.925 78.2903 130.845L75.438 128.277L73.3919 131.811C73.3278 131.924 73.2459 132.021 73.151 132.095C73.0562 132.169 72.9504 132.218 72.8399 132.24C72.7294 132.262 72.6165 132.256 72.5078 132.222C72.3992 132.189 72.2971 132.129 72.2076 132.045Z" fill="#263238"/>
<path d="M220.043 83.8068H215.595L216.151 61.0332H219.487L220.043 83.8068Z" fill="#263238"/>
<path opacity="0.7" d="M220.043 83.8068H215.595L216.151 61.0332H219.487L220.043 83.8068Z" fill="white"/>
<path d="M219.759 72.2477L219.709 70.0049H215.934L215.878 72.2477H219.759Z" fill="#0B1220"/>
<path d="M215.989 67.7619H219.653L219.598 65.519H216.039L215.989 67.7619Z" fill="#0B1220"/>
<path d="M219.87 76.7331L219.815 74.4902H215.823L215.767 76.7331H219.87Z" fill="#0B1220"/>
<path d="M219.981 81.2189L219.926 78.9761H215.711L215.661 81.2189H219.981Z" fill="#0B1220"/>
<path d="M219.542 63.2761L219.487 61.0332H216.151L216.095 63.2761H219.542Z" fill="#0B1220"/>
<path d="M227.46 83.8068H223.012L223.568 61.0332H226.904L227.46 83.8068Z" fill="#263238"/>
<path opacity="0.7" d="M227.46 83.8068H223.012L223.568 61.0332H226.904L227.46 83.8068Z" fill="white"/>
<path d="M227.176 72.2477L227.12 70.0049H223.345L223.29 72.2477H227.176Z" fill="#0B1220"/>
<path d="M223.401 67.7619H227.065L227.009 65.519H223.456L223.401 67.7619Z" fill="#0B1220"/>
<path d="M227.282 76.7331L227.232 74.4902H223.234L223.184 76.7331H227.282Z" fill="#0B1220"/>
<path d="M227.393 81.2189L227.337 78.9761H223.128L223.073 81.2189H227.393Z" fill="#0B1220"/>
<path d="M226.954 63.2761L226.904 61.0332H223.568L223.512 63.2761H226.954Z" fill="#0B1220"/>
<path d="M164.259 121.763H232.464V85.9393L198.359 65.0566L164.259 85.9393V121.763Z" fill="#0B1220"/>
<path opacity="0.5" d="M164.259 121.763H232.464V85.9393L198.359 65.0566L164.259 85.9393V121.763Z" fill="white"/>
<path d="M211.892 93.4062H184.831V121.756H211.892V93.4062Z" fill="#263238"/>
<path d="M189.652 93.4062H184.831V121.756H189.652V93.4062Z" fill="#263238"/>
<path opacity="0.5" d="M189.652 93.4062H184.831V121.756H189.652V93.4062Z" fill="white"/>
<path d="M196.413 101.922H192.337V108.202H196.413V101.922Z" fill="#263238"/>
<path opacity="0.6" d="M196.413 101.922H192.337V108.202H196.413V101.922Z" fill="white"/>
<path d="M198.915 101.922H196.413V108.202H198.915V101.922Z" fill="#263238"/>
<path opacity="0.4" d="M198.915 101.922H196.413V108.202H198.915V101.922Z" fill="white"/>
<path d="M197.413 101.922V103.833L197.48 103.764L197.591 103.854L197.691 103.764L197.825 103.854L197.958 103.764L198.042 103.854L198.142 103.785V101.922H197.413Z" fill="#0B1220"/>
<path opacity="0.7" d="M197.413 101.922V103.833L197.48 103.764L197.591 103.854L197.691 103.764L197.825 103.854L197.958 103.764L198.042 103.854L198.142 103.785V101.922H197.413Z" fill="#0B1220"/>
<path d="M203.707 101.922H199.632V108.202H203.707V101.922Z" fill="#263238"/>
<path opacity="0.6" d="M203.707 101.922H199.632V108.202H203.707V101.922Z" fill="white"/>
<path d="M206.215 101.922H203.713V108.202H206.215V101.922Z" fill="#263238"/>
<path opacity="0.4" d="M206.215 101.922H203.713V108.202H206.215V101.922Z" fill="white"/>
<path d="M204.714 101.922V103.833L204.775 103.764L204.892 103.854L204.992 103.764L205.12 103.854L205.259 103.764L205.342 103.854L205.442 103.785V101.922H204.714Z" fill="#0B1220"/>
<path opacity="0.7" d="M204.714 101.922V103.833L204.775 103.764L204.892 103.854L204.992 103.764L205.12 103.854L205.259 103.764L205.342 103.854L205.442 103.785V101.922H204.714Z" fill="#0B1220"/>
<path d="M231.991 87.1955L198.359 66.5957L164.726 87.1955C164.595 87.2758 164.453 87.3233 164.307 87.3352C164.161 87.3471 164.015 87.3232 163.876 87.2649C163.738 87.2065 163.61 87.1149 163.5 86.9953C163.39 86.8756 163.301 86.7302 163.236 86.5675C163.171 86.4048 163.133 86.2279 163.123 86.0469C163.114 85.8659 163.133 85.6843 163.18 85.5125C163.227 85.3408 163.301 85.1822 163.397 85.0458C163.494 84.9095 163.611 84.7981 163.742 84.718L198.359 63.4902L232.964 84.718C233.095 84.7981 233.212 84.9095 233.309 85.0458C233.405 85.1822 233.479 85.3408 233.526 85.5125C233.573 85.6843 233.592 85.8659 233.583 86.0469C233.573 86.2279 233.535 86.4048 233.47 86.5675C233.34 86.8926 233.111 87.1409 232.834 87.2584C232.558 87.376 232.255 87.3534 231.991 87.1955Z" fill="#263238"/>
<g opacity="0.5">
<path d="M231.991 87.1955L198.359 66.5957L164.726 87.1955C164.595 87.2758 164.453 87.3233 164.307 87.3352C164.161 87.3471 164.015 87.3232 163.876 87.2649C163.738 87.2065 163.61 87.1149 163.5 86.9953C163.39 86.8756 163.301 86.7302 163.236 86.5675C163.171 86.4048 163.133 86.2279 163.123 86.0469C163.114 85.8659 163.133 85.6843 163.18 85.5125C163.227 85.3408 163.301 85.1822 163.397 85.0458C163.494 84.9095 163.611 84.7981 163.742 84.718L198.359 63.4902L232.964 84.718C233.095 84.7981 233.212 84.9095 233.309 85.0458C233.405 85.1822 233.479 85.3408 233.526 85.5125C233.573 85.6843 233.592 85.8659 233.583 86.0469C233.573 86.2279 233.535 86.4048 233.47 86.5675C233.34 86.8926 233.111 87.1409 232.834 87.2584C232.558 87.376 232.255 87.3534 231.991 87.1955Z" fill="white"/>
</g>
<path d="M211.892 93.4062H207.071V121.756H211.892V93.4062Z" fill="#263238"/>
<path opacity="0.5" d="M211.892 93.4062H207.071V121.756H211.892V93.4062Z" fill="white"/>
<path d="M207.071 112.446H191.131V121.763H207.071V112.446Z" fill="#263238"/>
<path opacity="0.4" d="M207.071 112.446H191.131V121.763H207.071V112.446Z" fill="white"/>
<path d="M181.684 109.451H178.988V121.756H181.684V109.451Z" fill="#0B1220"/>
<path d="M191.131 113.703C190.541 113.703 189.975 113.412 189.558 112.894C189.141 112.376 188.907 111.674 188.907 110.942C188.907 110.21 189.141 109.508 189.558 108.99C189.975 108.472 190.541 108.182 191.131 108.182H207.071V113.703H191.131Z" fill="#0B1220"/>
<path d="M192.337 110.949C192.337 111.245 192.266 111.534 192.134 111.781C192.001 112.027 191.813 112.219 191.592 112.332C191.372 112.446 191.129 112.475 190.895 112.417C190.661 112.36 190.446 112.217 190.277 112.008C190.109 111.798 189.994 111.531 189.947 111.241C189.901 110.95 189.925 110.649 190.016 110.376C190.107 110.102 190.262 109.868 190.46 109.704C190.659 109.539 190.892 109.451 191.131 109.451C191.451 109.451 191.757 109.609 191.984 109.89C192.21 110.171 192.337 110.552 192.337 110.949Z" fill="#263238"/>
<path d="M180.528 109.451H168.891V121.756H180.528V109.451Z" fill="#0B1220"/>
<path opacity="0.3" d="M180.528 109.451H168.891V121.756H180.528V109.451Z" fill="white"/>
<path opacity="0.8" d="M177.042 114.958H175.079L175.857 111.942L172.382 116.256H174.345L173.567 119.271L177.042 114.958Z" fill="white"/>
<path d="M81.404 163.19C87.5515 163.19 92.5351 157.004 92.5351 149.374C92.5351 141.744 87.5515 135.558 81.404 135.558C75.2564 135.558 70.2728 141.744 70.2728 149.374C70.2728 157.004 75.2564 163.19 81.404 163.19Z" fill="#0B1220"/>
<path d="M79.6748 163.19C85.8224 163.19 90.8059 157.004 90.8059 149.374C90.8059 141.744 85.8224 135.558 79.6748 135.558C73.5273 135.558 68.5437 141.744 68.5437 149.374C68.5437 157.004 73.5273 163.19 79.6748 163.19Z" fill="#0B1220"/>
<path opacity="0.3" d="M79.6748 163.19C85.8224 163.19 90.8059 157.004 90.8059 149.374C90.8059 141.744 85.8224 135.558 79.6748 135.558C73.5273 135.558 68.5437 141.744 68.5437 149.374C68.5437 157.004 73.5273 163.19 79.6748 163.19Z" fill="white"/>
<path opacity="0.2" d="M79.6748 159.995C84.4006 159.995 88.2316 155.24 88.2316 149.374C88.2316 143.509 84.4006 138.753 79.6748 138.753C74.9489 138.753 71.1179 143.509 71.1179 149.374C71.1179 155.24 74.9489 159.995 79.6748 159.995Z" fill="white"/>
<path opacity="0.1" d="M72.4134 149.374C72.4143 146.699 73.2293 144.122 74.6953 142.16C76.1613 140.199 78.1702 138.997 80.3197 138.795C80.1084 138.795 79.8916 138.753 79.6748 138.753C77.4053 138.753 75.2289 139.872 73.6242 141.864C72.0194 143.856 71.1179 146.557 71.1179 149.374C71.1179 152.191 72.0194 154.892 73.6242 156.884C75.2289 158.876 77.4053 159.995 79.6748 159.995C79.8916 159.995 80.1084 159.995 80.3197 159.954C78.1697 159.753 76.1601 158.552 74.6938 156.59C73.2275 154.628 72.413 152.05 72.4134 149.374Z" fill="black"/>
<g opacity="0.1">
<path d="M83.6947 153.204C83.076 153.881 82.2938 154.284 81.4707 154.35V156.117H80.1975V154.398C79.5884 154.361 78.9861 154.222 78.4071 153.984C77.9132 153.802 77.4485 153.515 77.0338 153.135L77.7288 151.21C78.0713 151.516 78.4453 151.765 78.8408 151.948C79.2705 152.146 79.719 152.274 80.1752 152.328V149.692C79.6547 149.545 79.1451 149.344 78.6518 149.091C78.2437 148.88 77.8844 148.545 77.6065 148.118C77.311 147.631 77.1634 147.03 77.1895 146.421C77.1859 146 77.2522 145.584 77.3842 145.196C77.5162 144.809 77.7111 144.46 77.9568 144.171C78.5728 143.49 79.3569 143.088 80.1808 143.032V141.279H81.454V142.998C82.3648 143.052 83.2507 143.384 84.0339 143.964L83.4 145.903C82.8038 145.466 82.1413 145.186 81.454 145.082V147.766C81.9687 147.903 82.4729 148.094 82.9608 148.339C83.3644 148.55 83.7196 148.882 83.9949 149.305C84.292 149.787 84.4418 150.383 84.4175 150.989C84.4263 151.4 84.3667 151.809 84.2423 152.19C84.1179 152.572 83.9315 152.917 83.6947 153.204ZM79.508 146.993C79.7173 147.19 79.9551 147.336 80.2086 147.421V145.178C79.9458 145.235 79.7022 145.386 79.508 145.613C79.3656 145.8 79.2843 146.046 79.28 146.303C79.271 146.433 79.287 146.563 79.3266 146.683C79.3663 146.803 79.4285 146.909 79.508 146.993ZM82.1657 151.9C82.2418 151.812 82.3019 151.705 82.3422 151.586C82.3825 151.467 82.4019 151.339 82.3992 151.21C82.4016 151.086 82.3814 150.964 82.3399 150.851C82.2985 150.739 82.237 150.64 82.1601 150.561C81.9581 150.363 81.7281 150.213 81.4818 150.12V152.3C81.7435 152.246 81.9857 152.094 82.1768 151.866L82.1657 151.9Z" fill="black"/>
</g>
<path d="M82.844 153.204C82.2259 153.883 81.4433 154.286 80.62 154.35V156.117H79.3467V154.398C78.7377 154.361 78.1355 154.221 77.5564 153.984C77.063 153.8 76.5986 153.513 76.1831 153.135L76.8837 151.21C77.2252 151.518 77.5994 151.767 77.9957 151.948C78.4253 152.146 78.8739 152.274 79.3301 152.328V149.692C78.8098 149.544 78.3003 149.343 77.8066 149.091C77.3994 148.878 77.0405 148.544 76.7613 148.118C76.4659 147.631 76.3183 147.03 76.3443 146.421C76.3408 146 76.407 145.584 76.5391 145.196C76.6711 144.809 76.866 144.46 77.1116 144.171C77.7281 143.49 78.512 143.089 79.3356 143.032V141.279H80.62V142.998C81.5326 143.051 82.4206 143.383 83.2054 143.964L82.566 145.903C81.9698 145.466 81.3073 145.186 80.62 145.082V147.766C81.1347 147.903 81.6388 148.094 82.1267 148.339C82.5312 148.552 82.888 148.883 83.1665 149.305C83.4594 149.789 83.6069 150.385 83.5835 150.989C83.5912 151.402 83.5294 151.812 83.402 152.194C83.2747 152.575 83.0846 152.919 82.844 153.204ZM78.674 146.945C78.8819 147.141 79.1177 147.286 79.369 147.373V145.13C79.1014 145.19 78.8539 145.346 78.6573 145.579C78.5149 145.766 78.4336 146.012 78.4293 146.269C78.4161 146.404 78.43 146.54 78.4698 146.667C78.5096 146.793 78.574 146.905 78.6573 146.993L78.674 146.945ZM81.3317 151.852C81.4062 151.763 81.4649 151.655 81.5042 151.536C81.5434 151.418 81.5623 151.29 81.5596 151.162C81.5619 151.039 81.5422 150.917 81.5018 150.805C81.4614 150.692 81.4014 150.593 81.3261 150.513C81.122 150.315 80.8901 150.165 80.6422 150.071V152.252C80.8909 152.203 81.1238 152.069 81.315 151.866L81.3317 151.852Z" fill="#0B1220"/>
<path d="M146.439 44.8079C150.786 39.4125 150.786 30.6647 146.439 25.2692C142.092 19.8737 135.044 19.8737 130.697 25.2692C126.35 30.6647 126.35 39.4125 130.697 44.8079C135.044 50.2034 142.092 50.2034 146.439 44.8079Z" fill="#0B1220"/>
<path d="M147.661 38.2104C149.073 30.7841 145.368 23.343 139.385 21.5902C133.401 19.8374 127.406 24.4367 125.994 31.863C124.582 39.2894 128.288 46.7305 134.271 48.4832C140.254 50.236 146.249 45.6367 147.661 38.2104Z" fill="#0B1220"/>
<path opacity="0.3" d="M147.661 38.2104C149.073 30.7841 145.368 23.343 139.385 21.5902C133.401 19.8374 127.406 24.4367 125.994 31.863C124.582 39.2894 128.288 46.7305 134.271 48.4832C140.254 50.236 146.249 45.6367 147.661 38.2104Z" fill="white"/>
<path opacity="0.2" d="M136.832 45.6644C141.557 45.6644 145.388 40.9093 145.388 35.0436C145.388 29.1779 141.557 24.4229 136.832 24.4229C132.106 24.4229 128.275 29.1779 128.275 35.0436C128.275 40.9093 132.106 45.6644 136.832 45.6644Z" fill="white"/>
<path opacity="0.1" d="M129.576 35.0436C129.577 32.368 130.392 29.7914 131.858 27.8298C133.324 25.8681 135.333 24.6661 137.482 24.4643C137.265 24.4643 137.054 24.4229 136.832 24.4229C134.562 24.4229 132.386 25.5418 130.781 27.5336C129.176 29.5254 128.275 32.2268 128.275 35.0436C128.275 37.8604 129.176 40.5619 130.781 42.5536C132.386 44.5454 134.562 45.6644 136.832 45.6644C137.054 45.6644 137.265 45.6644 137.482 45.623C135.333 45.4212 133.324 44.2192 131.858 42.2575C130.392 40.2958 129.577 37.7193 129.576 35.0436Z" fill="black"/>
<g opacity="0.1">
<path d="M140.852 38.8806C140.236 39.563 139.452 39.9668 138.628 40.0262V41.7998H137.354V40.0745C136.744 40.0363 136.14 39.8994 135.558 39.6674C135.065 39.48 134.601 39.1907 134.185 38.8116L134.886 36.8862C135.227 37.1975 135.601 37.4484 135.998 37.6315C136.426 37.8318 136.875 37.9573 137.332 38.0042V35.368C136.809 35.2233 136.298 35.0224 135.803 34.7676C135.397 34.5582 135.04 34.2261 134.763 33.8014C134.465 33.3152 134.316 32.7138 134.341 32.1038C134.337 31.6827 134.403 31.2652 134.536 30.8778C134.669 30.4904 134.866 30.1418 135.114 29.854C135.729 29.1702 136.513 28.7663 137.338 28.7084V26.9556H138.611V28.6739C139.535 28.7357 140.433 29.0794 141.224 29.6746L140.59 31.6138C139.992 31.1808 139.331 30.9016 138.644 30.7926V33.4771C139.158 33.6196 139.662 33.8135 140.151 34.0568C140.554 34.2654 140.91 34.595 141.185 35.016C141.48 35.4991 141.629 36.0947 141.608 36.6999C141.609 37.1084 141.543 37.5128 141.412 37.888C141.282 38.2632 141.091 38.6011 140.852 38.8806ZM136.682 32.6214C136.889 32.8209 137.128 32.9665 137.382 33.0492V30.8064C137.115 30.8675 136.868 31.0233 136.67 31.2549C136.527 31.4411 136.446 31.6876 136.442 31.9451C136.435 32.0734 136.453 32.202 136.495 32.3198C136.536 32.4376 136.6 32.5411 136.682 32.6214ZM139.339 37.5349C139.414 37.4461 139.473 37.3388 139.512 37.2199C139.551 37.101 139.57 36.9733 139.567 36.8448C139.57 36.7229 139.55 36.6018 139.51 36.4907C139.469 36.3795 139.409 36.2812 139.334 36.203C139.133 36.0022 138.902 35.8522 138.655 35.7614V37.9559C138.911 37.8997 139.148 37.7536 139.339 37.5349Z" fill="black"/>
</g>
<path d="M139.99 38.8806C139.373 39.5607 138.589 39.9641 137.766 40.0262V41.7998H136.492V40.0745C135.882 40.0357 135.279 39.8988 134.697 39.6674C134.203 39.48 133.739 39.1907 133.323 38.8116L134.024 36.8862C134.365 37.1975 134.739 37.4484 135.136 37.6315C135.565 37.8304 136.014 37.9558 136.47 38.0042V35.368C135.947 35.2233 135.436 35.0224 134.941 34.7676C134.536 34.5565 134.179 34.2247 133.901 33.8014C133.606 33.3138 133.456 32.7135 133.479 32.1038C133.476 31.6829 133.543 31.2657 133.676 30.8786C133.809 30.4914 134.005 30.1425 134.252 29.854C134.867 29.1702 135.651 28.7663 136.476 28.7084V26.9556H137.749V28.6739C138.659 28.7319 139.545 29.0634 140.329 29.6401L139.695 31.5793C139.097 31.1463 138.435 30.8671 137.749 30.7581V33.4426C138.263 33.5841 138.767 33.778 139.256 34.0223C139.659 34.2309 140.014 34.5605 140.29 34.9815C140.587 35.463 140.737 36.0597 140.712 36.6654C140.721 37.0765 140.662 37.4854 140.537 37.8666C140.413 38.2478 140.226 38.593 139.99 38.8806ZM135.814 32.6214C136.022 32.8209 136.26 32.9665 136.515 33.0492V30.8064C136.248 30.8675 136 31.0233 135.803 31.2549C135.66 31.4411 135.578 31.6876 135.575 31.9451C135.568 32.0734 135.586 32.202 135.627 32.3198C135.669 32.4376 135.733 32.5411 135.814 32.6214ZM138.472 37.5349C138.547 37.4465 138.607 37.3394 138.647 37.2205C138.688 37.1017 138.707 36.9737 138.705 36.8448C138.707 36.7224 138.686 36.6012 138.645 36.49C138.603 36.3789 138.542 36.2808 138.466 36.203C138.266 36.0022 138.035 35.8522 137.788 35.7614V37.9559C138.044 37.8997 138.281 37.7536 138.472 37.5349Z" fill="#0B1220"/>
<path d="M164.393 135.379H151.293C151.143 135.374 150.993 135.407 150.853 135.477C150.713 135.546 150.585 135.65 150.479 135.783C150.372 135.915 150.288 136.073 150.232 136.247C150.176 136.42 150.15 136.607 150.153 136.794V153.046C150.153 153.232 150.182 153.417 150.239 153.589C150.296 153.762 150.379 153.918 150.485 154.05C150.591 154.183 150.717 154.287 150.856 154.359C150.994 154.43 151.143 154.467 151.293 154.467V157.228C151.296 157.421 151.344 157.609 151.431 157.768C151.519 157.928 151.642 158.052 151.786 158.125C151.929 158.199 152.087 158.218 152.24 158.181C152.393 158.144 152.533 158.053 152.644 157.918L155.424 154.467H164.393C164.543 154.467 164.691 154.43 164.83 154.359C164.969 154.287 165.095 154.183 165.201 154.05C165.306 153.918 165.39 153.762 165.447 153.589C165.504 153.417 165.533 153.232 165.532 153.046V136.794C165.536 136.607 165.509 136.42 165.453 136.247C165.397 136.073 165.314 135.915 165.207 135.783C165.1 135.65 164.973 135.546 164.833 135.477C164.693 135.407 164.543 135.374 164.393 135.379Z" fill="#0B1220"/>
<g opacity="0.9">
<path d="M161.507 143.322H154.529L154.268 142.121H151.927V142.659H153.934L155.385 149.312H160.189V148.774H155.741L155.485 147.607H160.367L161.507 143.322ZM155.346 147.069L154.646 143.86H160.901L160.033 147.069H155.346Z" fill="white"/>
<path d="M155.624 150.575C155.864 150.575 156.058 150.334 156.058 150.037C156.058 149.74 155.864 149.499 155.624 149.499C155.385 149.499 155.191 149.74 155.191 150.037C155.191 150.334 155.385 150.575 155.624 150.575Z" fill="white"/>
<path d="M160.623 150.037C160.623 150.143 160.597 150.247 160.55 150.336C160.502 150.424 160.434 150.493 160.355 150.534C160.276 150.575 160.189 150.586 160.105 150.565C160.02 150.544 159.943 150.493 159.883 150.417C159.822 150.342 159.781 150.246 159.764 150.142C159.747 150.037 159.756 149.929 159.788 149.831C159.821 149.732 159.877 149.648 159.948 149.589C160.02 149.53 160.103 149.499 160.189 149.499C160.304 149.499 160.414 149.555 160.496 149.656C160.577 149.757 160.623 149.894 160.623 150.037Z" fill="white"/>
</g>
<path d="M160.078 144.75C161.487 144.75 162.63 143.332 162.63 141.583C162.63 139.833 161.487 138.415 160.078 138.415C158.668 138.415 157.526 139.833 157.526 141.583C157.526 143.332 158.668 144.75 160.078 144.75Z" fill="#0B1220"/>
<path opacity="0.3" d="M160.078 144.75C161.487 144.75 162.63 143.332 162.63 141.583C162.63 139.833 161.487 138.415 160.078 138.415C158.668 138.415 157.526 139.833 157.526 141.583C157.526 143.332 158.668 144.75 160.078 144.75Z" fill="black"/>
<g opacity="0.9">
<path d="M160 143.633L157.904 140.934C157.745 140.735 157.655 140.466 157.655 140.185C157.655 139.905 157.745 139.636 157.904 139.437C157.983 139.338 158.077 139.26 158.181 139.206C158.284 139.153 158.395 139.125 158.507 139.125C158.619 139.125 158.73 139.153 158.834 139.206C158.937 139.26 159.031 139.338 159.111 139.437L160.028 140.617L162.808 137.132C162.887 137.033 162.981 136.955 163.084 136.901C163.188 136.848 163.299 136.82 163.411 136.82C163.523 136.82 163.634 136.848 163.738 136.901C163.841 136.955 163.935 137.033 164.014 137.132C164.173 137.33 164.263 137.598 164.263 137.877C164.263 138.156 164.173 138.424 164.014 138.622L160 143.633Z" fill="white"/>
</g>
<path d="M100.386 72.2197H51.2688V121.763H100.386V72.2197Z" fill="#0B1220"/>
<path opacity="0.5" d="M100.386 72.2197H51.2688V121.763H100.386V72.2197Z" fill="white"/>
<path d="M57.0734 66.6919H49.573V73.2893H57.0734V66.6919Z" fill="#0B1220"/>
<path d="M71.9854 66.6919H64.485V73.2893H71.9854V66.6919Z" fill="#0B1220"/>
<path d="M86.9028 66.6919H79.4023V73.2893H86.9028V66.6919Z" fill="#0B1220"/>
<path d="M101.82 66.6919H94.3198V73.2893H101.82V66.6919Z" fill="#0B1220"/>
<g opacity="0.2">
<path d="M57.0734 66.6919H49.573V73.2893H57.0734V66.6919Z" fill="white"/>
<path d="M71.9853 66.6919H64.4849V73.2893H71.9853V66.6919Z" fill="white"/>
<path d="M86.9028 66.6919H79.4023V73.2893H86.9028V66.6919Z" fill="white"/>
<path d="M101.82 66.6919H94.3198V73.2893H101.82V66.6919Z" fill="white"/>
</g>
<path d="M57.3013 77.8513C57.3013 79.4593 55.5722 80.7636 53.4093 80.7636C51.2465 80.7636 49.5173 79.4593 49.5173 77.8513V73.2207H57.0178L57.3013 77.8513Z" fill="#0B1220"/>
<path d="M72.23 77.8513C72.23 79.4593 70.5008 80.7636 68.338 80.7636C66.1751 80.7636 64.4738 79.4593 64.4738 77.8513V73.2207H71.9798L72.23 77.8513Z" fill="#0B1220"/>
<path d="M87.1586 77.8513C87.1586 79.4593 85.4294 80.7636 83.2944 80.7636C81.1593 80.7636 79.4302 79.4593 79.4302 77.8513V73.2207H86.9362L87.1586 77.8513Z" fill="#0B1220"/>
<path d="M101.826 77.8513C101.826 79.4593 100.319 80.7636 98.1841 80.7636C96.0491 80.7636 94.2921 79.4593 94.2921 77.8513V73.2207H101.798L101.826 77.8513Z" fill="#0B1220"/>
<path d="M64.5294 73.2203V66.6919H57.0289V73.2824V77.851C57.0289 79.4589 58.7581 80.7632 60.9209 80.7632C63.0838 80.7632 64.5627 79.4589 64.5627 77.851V73.2203H64.5294Z" fill="#263238"/>
<path opacity="0.8" d="M64.5294 66.6919H57.0289V77.851C57.0289 79.4589 58.7581 80.7632 60.9209 80.7632C63.0838 80.7632 64.5627 79.4589 64.5627 77.851L64.5294 66.6919Z" fill="white"/>
<path d="M79.5081 73.2203V66.6919H71.991V73.2824V77.851C71.991 79.4589 73.7201 80.7632 75.8552 80.7632C77.9902 80.7632 79.497 79.4589 79.497 77.851V73.2203H79.5081Z" fill="#263238"/>
<path opacity="0.8" d="M79.5081 66.6919H71.991V77.851C71.991 79.4589 73.7201 80.7632 75.8552 80.7632C77.9902 80.7632 79.497 79.4589 79.497 77.851L79.5081 66.6919Z" fill="white"/>
<path d="M94.4088 73.2203V66.6919H86.9083V73.2824V77.851C86.9083 79.4589 88.6375 80.7632 90.8003 80.7632C92.9632 80.7632 94.4421 79.4589 94.4421 77.851V73.2203H94.4088Z" fill="#263238"/>
<path opacity="0.8" d="M94.4088 66.6919H86.9083V77.851C86.9083 79.4589 88.6375 80.7632 90.8003 80.7632C92.9632 80.7632 94.4421 79.4589 94.4421 77.851L94.4088 66.6919Z" fill="white"/>
<path opacity="0.5" d="M95.076 87.7197H72.6748V103.496H95.076V87.7197Z" fill="white"/>
<path opacity="0.4" d="M87.0195 103.482H82.9663L86.0076 87.8784H90.0664L87.0195 103.482Z" fill="white"/>
<path opacity="0.4" d="M88.9879 103.482H88.0872L91.134 87.8784H92.0292L88.9879 103.482Z" fill="white"/>
<path opacity="0.4" d="M76.4945 103.482H76.0386L79.0855 87.8784H79.5414L76.4945 103.482Z" fill="white"/>
<path d="M95.5208 104.048H72.23V87.1675H95.5208V104.048ZM73.1196 102.943H94.6312V88.2717H73.1196V102.943Z" fill="#0B1220"/>
<path d="M67.2149 81.9502H53.7485V121.625H67.2149V81.9502Z" fill="#0B1220"/>
<path opacity="0.7" d="M66.6421 82.6685H54.3212V121.618H66.6421V82.6685Z" fill="white"/>
<path opacity="0.1" d="M60.1927 87.8091H55.2554V102.074H60.1927V87.8091Z" fill="black"/>
<path opacity="0.1" d="M65.7748 87.8091H60.8375V102.074H65.7748V87.8091Z" fill="black"/>
<path opacity="0.1" d="M65.7749 106.387H55.2554V120.652H65.7749V106.387Z" fill="black"/>
<path opacity="0.1" d="M65.7805 87.0709H55.2554C55.2554 86.1777 55.5412 85.3211 56.0501 84.6895C56.5589 84.0579 57.249 83.7031 57.9687 83.7031H63.0672C63.7868 83.7031 64.4769 84.0579 64.9858 84.6895C65.4946 85.3211 65.7805 86.1777 65.7805 87.0709Z" fill="black"/>
<path d="M56.1561 102.716H55.2554V105.621H56.1561V102.716Z" fill="#0B1220"/>
<path opacity="0.3" d="M56.1561 102.716H55.2554V105.621H56.1561V102.716Z" fill="white"/>
<path d="M56.1504 105.621H56.3284V102.716H56.1504V105.621Z" fill="#0B1220"/>
<path d="M55.8558 103.855C55.8558 103.947 55.8336 104.038 55.792 104.115C55.7505 104.192 55.6915 104.253 55.6224 104.288C55.5533 104.324 55.4773 104.333 55.4039 104.315C55.3306 104.297 55.2632 104.252 55.2103 104.186C55.1575 104.121 55.1215 104.037 55.1069 103.946C55.0923 103.855 55.0998 103.761 55.1284 103.675C55.157 103.589 55.2055 103.516 55.2676 103.464C55.3298 103.413 55.4029 103.385 55.4777 103.385C55.578 103.385 55.6741 103.435 55.745 103.523C55.8159 103.611 55.8558 103.73 55.8558 103.855Z" fill="#263238"/>
<path opacity="0.5" d="M55.7835 104.669H55.5889V105.256H55.7835V104.669Z" fill="white"/>
<path d="M55.144 104.51C55.4358 104.51 55.6722 104.216 55.6722 103.854C55.6722 103.492 55.4358 103.199 55.144 103.199C54.8523 103.199 54.6158 103.492 54.6158 103.854C54.6158 104.216 54.8523 104.51 55.144 104.51Z" fill="#263238"/>
<path opacity="0.2" d="M55.144 104.51C55.4358 104.51 55.6722 104.216 55.6722 103.854C55.6722 103.492 55.4358 103.199 55.144 103.199C54.8523 103.199 54.6158 103.492 54.6158 103.854C54.6158 104.216 54.8523 104.51 55.144 104.51Z" fill="white"/>
<path d="M196.83 133.826H177.019L180.806 139.996H200.61L196.83 133.826Z" fill="#0B1220"/>
<path opacity="0.3" d="M196.83 133.826H177.019L180.806 139.996H200.61L196.83 133.826Z" fill="white"/>
<path d="M204.197 133.826H216.362L212.781 139.996H200.61L204.197 133.826Z" fill="#0B1220"/>
<path opacity="0.1" d="M204.197 133.826H216.362L212.781 139.996H200.61L204.197 133.826Z" fill="white"/>
<path d="M200.616 139.995H180.806V164.584H200.616V139.995Z" fill="#0B1220"/>
<path opacity="0.5" d="M200.616 139.995H180.806V164.584H200.616V139.995Z" fill="white"/>
<path opacity="0.2" d="M192.498 139.995H188.912V145.53H192.498V139.995Z" fill="black"/>
<path opacity="0.2" d="M192.498 160.14H188.912V164.584H192.498V160.14Z" fill="black"/>
<path d="M212.776 139.995H200.61V164.584H212.776V139.995Z" fill="#0B1220"/>
<path opacity="0.3" d="M212.776 139.995H200.61V164.584H212.776V139.995Z" fill="white"/>
<path opacity="0.8" d="M207.483 162.969V158.518H202.017V162.969H207.483Z" fill="white"/>
<path d="M152.522 231.587C157.103 231.877 159.394 232.056 163.97 232.505C163.229 212.05 162.271 191.614 161.096 171.196C160.94 168.601 158.916 166.365 156.581 166.192L152.133 165.916C134.791 165.116 117.527 165.35 100.202 166.606C104.076 188.175 107.684 209.798 111.028 231.477C124.9 230.828 138.666 230.849 152.522 231.587Z" fill="#0B1220"/>
<path opacity="0.5" d="M152.522 231.587C157.103 231.877 159.394 232.056 163.97 232.505C163.229 212.05 162.271 191.614 161.096 171.196C160.94 168.601 158.916 166.365 156.581 166.192L152.133 165.916C134.791 165.116 117.527 165.35 100.202 166.606C104.076 188.175 107.684 209.798 111.028 231.477C124.9 230.828 138.666 230.849 152.522 231.587Z" fill="white"/>
<path d="M116.154 231.256C111.573 231.463 109.282 231.608 104.7 231.946C101.609 211.832 98.3212 191.77 94.837 171.762C94.3866 169.222 95.9156 166.972 98.2564 166.765C100.024 166.613 100.914 166.538 102.704 166.406C105.045 166.227 107.264 168.18 107.653 170.733C110.685 190.875 113.519 211.05 116.154 231.256Z" fill="#0B1220"/>
<path d="M122.542 242.594L120.374 211.801C120.325 211.135 120.095 210.509 119.721 210.027C119.347 209.546 118.851 209.237 118.317 209.151L117.422 209.006C116.7 208.898 116.03 208.485 115.524 207.837C115.018 207.189 114.706 206.344 114.642 205.445L114.247 199.835C114.208 199.29 114.261 198.742 114.403 198.224C114.544 197.706 114.771 197.231 115.069 196.828C115.366 196.425 115.728 196.103 116.131 195.883C116.534 195.663 116.97 195.549 117.411 195.549H97.3945C96.9545 195.55 96.5195 195.664 96.117 195.885C95.7145 196.105 95.3533 196.427 95.0564 196.83C94.7594 197.233 94.5332 197.708 94.3921 198.226C94.2509 198.743 94.1979 199.291 94.2364 199.835L94.6312 205.445C94.6959 206.344 95.0074 207.189 95.5134 207.837C96.0194 208.485 96.6893 208.898 97.4112 209.006L98.3064 209.151C98.841 209.237 99.3363 209.546 99.7103 210.027C100.084 210.509 100.315 211.135 100.364 211.801L102.532 242.594C102.608 243.676 103.009 244.683 103.654 245.416C104.3 246.15 105.143 246.556 106.018 246.555H126.034C125.158 246.556 124.314 246.15 123.668 245.417C123.022 244.684 122.62 243.677 122.542 242.594Z" fill="#0B1220"/>
<g opacity="0.2">
<path d="M122.542 242.594L120.374 211.801C120.325 211.135 120.095 210.509 119.721 210.027C119.347 209.546 118.851 209.237 118.317 209.151L117.422 209.006C116.7 208.898 116.03 208.485 115.524 207.837C115.018 207.189 114.706 206.344 114.642 205.445L114.247 199.835C114.208 199.29 114.261 198.742 114.403 198.224C114.544 197.706 114.771 197.231 115.069 196.828C115.366 196.425 115.728 196.103 116.131 195.883C116.534 195.663 116.97 195.549 117.411 195.549H97.3945C96.9545 195.55 96.5195 195.664 96.117 195.885C95.7145 196.105 95.3533 196.427 95.0564 196.83C94.7594 197.233 94.5332 197.708 94.3921 198.226C94.2509 198.743 94.1979 199.291 94.2364 199.835L94.6312 205.445C94.6959 206.344 95.0074 207.189 95.5134 207.837C96.0194 208.485 96.6893 208.898 97.4112 209.006L98.3064 209.151C98.841 209.237 99.3363 209.546 99.7103 210.027C100.084 210.509 100.315 211.135 100.364 211.801L102.532 242.594C102.608 243.676 103.009 244.683 103.654 245.416C104.3 246.15 105.143 246.556 106.018 246.555H126.034C125.158 246.556 124.314 246.15 123.668 245.417C123.022 244.684 122.62 243.677 122.542 242.594Z" fill="white"/>
</g>
<path d="M177.631 204.1C177.795 201.766 178.658 199.593 180.05 198.01C181.441 196.427 183.26 195.549 185.148 195.549H167.717C165.83 195.551 164.012 196.429 162.62 198.012C161.229 199.594 160.366 201.766 160.2 204.1L158.46 228.502H175.885L177.631 204.1Z" fill="#0B1220"/>
<path opacity="0.2" d="M177.631 204.1C177.795 201.766 178.658 199.593 180.05 198.01C181.441 196.427 183.26 195.549 185.148 195.549H167.717C165.83 195.551 164.012 196.429 162.62 198.012C161.229 199.594 160.366 201.766 160.2 204.1L158.46 228.502H175.885L177.631 204.1Z" fill="white"/>
<path d="M173.744 227.363C161.684 229.111 149.518 229.466 137.404 228.426C136.988 228.401 136.58 228.274 136.203 228.052C135.827 227.83 135.489 227.517 135.211 227.132C134.933 226.747 134.719 226.297 134.582 225.808C134.445 225.32 134.387 224.802 134.413 224.285C134.763 220.331 134.936 218.357 135.286 214.403C135.38 213.413 135.781 212.508 136.404 211.879C137.026 211.25 137.822 210.948 138.622 211.035C149.68 212.289 160.818 211.956 171.815 210.042C172.614 209.9 173.425 210.151 174.076 210.742C174.728 211.332 175.167 212.215 175.301 213.202L176.552 223.023C176.602 223.537 176.568 224.059 176.453 224.557C176.338 225.056 176.144 225.52 175.882 225.925C175.621 226.329 175.297 226.664 174.93 226.911C174.563 227.158 174.16 227.312 173.744 227.363Z" fill="#0B1220"/>
<path d="M138.405 211.036C135.625 210.725 134.274 210.532 131.533 210.063C130.734 209.919 129.921 210.169 129.268 210.76C128.616 211.351 128.175 212.235 128.041 213.223L126.768 223.044C126.721 223.558 126.757 224.079 126.874 224.576C126.991 225.074 127.187 225.537 127.45 225.939C127.713 226.341 128.038 226.674 128.406 226.919C128.774 227.163 129.177 227.315 129.592 227.364C132.6 227.874 134.102 228.088 137.121 228.426C137.649 221.47 137.888 217.992 138.405 211.036Z" fill="#0B1220"/>
<g opacity="0.4">
<path d="M173.744 227.363C161.684 229.111 149.518 229.466 137.404 228.426C136.988 228.401 136.58 228.274 136.203 228.052C135.827 227.83 135.489 227.517 135.211 227.132C134.933 226.747 134.719 226.297 134.582 225.808C134.445 225.32 134.387 224.802 134.413 224.285C134.763 220.331 134.936 218.357 135.286 214.403C135.38 213.413 135.781 212.508 136.404 211.879C137.026 211.25 137.822 210.948 138.622 211.035C149.68 212.289 160.818 211.956 171.815 210.042C172.614 209.9 173.425 210.151 174.076 210.742C174.728 211.332 175.167 212.215 175.301 213.202L176.552 223.023C176.602 223.537 176.568 224.059 176.453 224.557C176.338 225.056 176.144 225.52 175.882 225.925C175.621 226.329 175.297 226.664 174.93 226.911C174.563 227.158 174.16 227.312 173.744 227.363Z" fill="white"/>
</g>
<path d="M192.882 195.549H185.148C183.261 195.551 181.444 196.43 180.053 198.012C178.663 199.595 177.801 201.767 177.636 204.1L175.913 228.502H134.402L132.684 204.1C132.52 201.767 131.658 199.595 130.267 198.012C128.877 196.43 127.059 195.551 125.172 195.549H117.433C116.992 195.549 116.557 195.663 116.154 195.883C115.75 196.103 115.389 196.425 115.091 196.828C114.793 197.231 114.567 197.706 114.425 198.224C114.284 198.742 114.231 199.29 114.269 199.835L114.664 205.446C114.729 206.345 115.04 207.189 115.546 207.837C116.052 208.485 116.722 208.898 117.444 209.007L118.339 209.151C118.874 209.237 119.369 209.546 119.743 210.028C120.117 210.509 120.348 211.135 120.396 211.802L122.565 242.594C122.642 243.675 123.043 244.681 123.688 245.415C124.333 246.148 125.176 246.554 126.051 246.555H184.281C185.156 246.556 186 246.15 186.647 245.417C187.293 244.684 187.695 243.677 187.772 242.594L189.941 211.802C189.988 211.134 190.217 210.507 190.592 210.025C190.966 209.543 191.462 209.234 191.998 209.151L192.888 209.007C193.61 208.899 194.28 208.487 194.787 207.838C195.293 207.19 195.604 206.345 195.668 205.446L196.062 199.835C196.102 199.288 196.049 198.738 195.907 198.218C195.765 197.699 195.536 197.222 195.237 196.818C194.937 196.414 194.573 196.093 194.168 195.874C193.762 195.656 193.324 195.545 192.882 195.549Z" fill="#0B1220"/>
<path opacity="0.6" d="M192.882 195.549H185.148C183.261 195.551 181.444 196.43 180.053 198.012C178.663 199.595 177.801 201.767 177.636 204.1L175.913 228.502H134.402L132.684 204.1C132.52 201.767 131.658 199.595 130.267 198.012C128.877 196.43 127.059 195.551 125.172 195.549H117.433C116.992 195.549 116.557 195.663 116.154 195.883C115.75 196.103 115.389 196.425 115.091 196.828C114.793 197.231 114.567 197.706 114.425 198.224C114.284 198.742 114.231 199.29 114.269 199.835L114.664 205.446C114.729 206.345 115.04 207.189 115.546 207.837C116.052 208.485 116.722 208.898 117.444 209.007L118.339 209.151C118.874 209.237 119.369 209.546 119.743 210.028C120.117 210.509 120.348 211.135 120.396 211.802L122.565 242.594C122.642 243.675 123.043 244.681 123.688 245.415C124.333 246.148 125.176 246.554 126.051 246.555H184.281C185.156 246.556 186 246.15 186.647 245.417C187.293 244.684 187.695 243.677 187.772 242.594L189.941 211.802C189.988 211.134 190.217 210.507 190.592 210.025C190.966 209.543 191.462 209.234 191.998 209.151L192.888 209.007C193.61 208.899 194.28 208.487 194.787 207.838C195.293 207.19 195.604 206.345 195.668 205.446L196.062 199.835C196.102 199.288 196.049 198.738 195.907 198.218C195.765 197.699 195.536 197.222 195.237 196.818C194.937 196.414 194.573 196.093 194.168 195.874C193.762 195.656 193.324 195.545 192.882 195.549Z" fill="white"/>
<path d="M167.69 233.864L169.552 244.595L172.455 243.353L172.115 233.202L167.69 233.864Z" fill="#FFC3BD"/>
<path d="M140.473 188.814C143.253 188.85 146.023 188.401 148.702 187.482L151.438 194.611C151.438 194.611 168.557 190.802 170.736 197.372C172.599 202.955 172.677 237.398 172.677 237.398L167.912 238.088C167.912 238.088 162.691 213.016 162.713 204.714C162.715 204.568 162.683 204.424 162.622 204.298C162.56 204.173 162.472 204.072 162.366 204.006C162.26 203.941 162.142 203.914 162.025 203.928C161.907 203.942 161.795 203.997 161.701 204.086C159.072 206.626 152.072 212.119 141.474 211.27C139.834 211.139 137.916 210.698 138.405 204.052C138.873 198.93 139.563 193.844 140.473 188.814Z" fill="#0B1220"/>
<path opacity="0.1" d="M149.959 207.723C154.657 205.135 161.173 198.061 164.187 195.439C164.887 194.801 165.683 194.343 166.528 194.093C163.914 193.403 160.567 193.403 157.687 193.686L150.854 197.433L139.884 203.506L138.527 208.337C139 210.925 140.312 211.194 141.491 211.291C145.665 211.653 149.856 210.978 153.817 209.303C153.272 209.338 145.427 210.214 149.959 207.723Z" fill="black"/>
<path d="M182.69 214.203L188.562 221.567L190.841 219.338L186.316 210.891L182.69 214.203Z" fill="#FFC3BD"/>
<path d="M190.419 218.33L187.772 220.835C187.718 220.89 187.679 220.966 187.663 221.051C187.647 221.136 187.654 221.225 187.683 221.305L189.023 224.893C189.08 225.046 189.183 225.165 189.31 225.224C189.437 225.284 189.578 225.279 189.702 225.211C189.735 225.192 189.767 225.168 189.796 225.142C190.88 224.079 191.809 223.071 193.171 221.781C194.783 220.256 194.522 220.884 196.435 219.117C197.591 218.054 196.807 216.246 196.274 216.626C193.844 218.379 192.71 218.144 191.27 217.971C190.96 217.953 190.655 218.081 190.419 218.33Z" fill="#263238"/>
<path opacity="0.1" d="M142.247 194.011L145.172 194.88C145.172 194.88 150.643 189.601 148.091 191.347C146.228 192.631 145.311 189.967 144.927 188.456C143.765 188.656 142.747 188.745 141.98 188.787L142.247 194.011Z" fill="black"/>
<path d="M143.504 188.4C136.248 189.891 133.045 188.49 133.045 188.49C133.045 188.49 127.874 211.546 139.278 211.45C144.332 211.408 146.428 208.951 149.714 206.557C157.187 201.112 163.358 193.044 166.25 193.569C170.403 194.314 168.051 200.47 184.992 217.564L188.506 213.727C188.506 213.727 173.867 181.092 166.177 181.161C158.771 181.223 146.856 192.775 145.288 192.789C143.72 192.803 143.504 188.4 143.504 188.4Z" fill="#0B1220"/>
<path opacity="0.1" d="M168.562 194.88C169.518 195.324 170.299 196.209 170.742 197.35C171.027 198.342 171.225 199.37 171.331 200.415C171.81 201.27 172.377 202.23 173.044 203.278C172.599 196.364 168.562 194.88 168.562 194.88Z" fill="black"/>
<path d="M172.41 242.387L169.074 242.636C169.004 242.639 168.937 242.673 168.884 242.731C168.831 242.788 168.796 242.867 168.785 242.953L168.279 246.866C168.267 246.949 168.269 247.033 168.283 247.115C168.298 247.197 168.326 247.274 168.366 247.342C168.405 247.411 168.455 247.468 168.513 247.512C168.57 247.556 168.635 247.585 168.701 247.597C168.736 247.604 168.772 247.604 168.807 247.597C170.186 247.466 171.404 247.287 173.122 247.163C175.145 247.011 174.645 247.349 177.014 247.218C178.454 247.135 178.615 245.092 178.003 245.037C175.223 244.809 174.367 243.823 173.233 242.663C172.993 242.453 172.702 242.356 172.41 242.387Z" fill="#263238"/>
<path d="M142.647 157.801C143.587 157.352 145.144 158.125 146.495 161.12C147.846 164.115 153.595 176.468 151.96 178.055C150.326 179.643 147.195 175.143 146.044 171.913C144.894 168.684 141.002 158.594 142.647 157.801Z" fill="#263238"/>
<path opacity="0.4" d="M145.172 163.501L145.372 165.482L145.266 169.767C145.578 170.63 145.85 171.368 146.045 171.913C146.545 173.255 147.186 174.508 147.952 175.64C148.196 169.602 146.361 163.501 146.361 163.501H145.172Z" fill="black"/>
<path d="M132.689 188.931C132.689 188.931 142.736 190.415 149.147 187.8C149.147 187.8 147.195 184.749 146.923 178.642C146.673 172.652 148.724 165.461 143.893 158.173C143.799 158.031 143.678 157.918 143.542 157.846C143.405 157.774 143.257 157.744 143.109 157.759C140.568 157.98 128.736 159.139 128.564 161.741C128.364 165.04 133.535 172.079 132.689 188.931Z" fill="#43ACE0"/>
<path d="M133.674 150.872C133.674 150.872 134.991 155.641 133.968 157.684C133.968 157.684 137.666 157.918 138.566 156.421C138.566 156.421 138.044 156.069 137.877 154.247C137.71 152.425 136.303 150.541 133.674 150.872Z" fill="#FFC3BD"/>
<path opacity="0.2" d="M137.888 154.246C137.738 152.562 136.515 150.796 134.241 150.837L134.085 151.01L133.924 151.375C133.924 151.375 135.319 156.027 138.122 155.516C138.001 155.106 137.923 154.68 137.888 154.246Z" fill="black"/>
<path d="M132.284 144.544C132.723 148.926 132.84 150.796 134.736 152.915C137.604 156.11 141.847 154.481 142.475 150.016C143.031 146 142.225 139.506 138.666 138.022C137.882 137.691 137.043 137.613 136.228 137.797C135.413 137.981 134.65 138.421 134.01 139.074C133.371 139.728 132.876 140.573 132.574 141.531C132.272 142.488 132.172 143.525 132.284 144.544Z" fill="#FFC3BD"/>
<path d="M140.112 147.125C140.411 147.922 140.796 148.665 141.257 149.333C141.118 149.476 140.955 149.578 140.78 149.635C140.606 149.691 140.423 149.698 140.246 149.657L140.112 147.125Z" fill="#ED893E"/>
<path d="M136.982 144.84L136.915 144.806C136.889 144.773 136.875 144.728 136.875 144.682C136.875 144.635 136.889 144.591 136.915 144.558C137.076 144.295 137.285 144.085 137.525 143.943C137.765 143.801 138.028 143.733 138.294 143.743C138.327 143.754 138.355 143.78 138.375 143.815C138.394 143.849 138.403 143.892 138.399 143.934C138.396 143.976 138.381 144.015 138.356 144.045C138.332 144.074 138.3 144.092 138.266 144.095C138.05 144.093 137.837 144.154 137.643 144.274C137.45 144.394 137.282 144.569 137.154 144.785C137.134 144.816 137.106 144.838 137.075 144.848C137.044 144.858 137.011 144.855 136.982 144.84Z" fill="#2E353A"/>
<path d="M142.225 144.143L142.158 144.109C141.988 143.94 141.787 143.824 141.574 143.77C141.36 143.716 141.139 143.726 140.929 143.798C140.912 143.807 140.894 143.812 140.875 143.812C140.857 143.812 140.838 143.807 140.821 143.798C140.804 143.789 140.789 143.776 140.776 143.759C140.763 143.743 140.753 143.723 140.746 143.702C140.739 143.68 140.736 143.657 140.737 143.634C140.737 143.61 140.742 143.587 140.751 143.567C140.759 143.546 140.771 143.527 140.785 143.513C140.8 143.498 140.817 143.487 140.835 143.481C141.089 143.388 141.357 143.372 141.617 143.433C141.877 143.494 142.122 143.631 142.33 143.833C142.345 143.846 142.358 143.863 142.368 143.882C142.378 143.901 142.385 143.922 142.388 143.945C142.391 143.967 142.39 143.99 142.386 144.013C142.382 144.035 142.374 144.056 142.364 144.074C142.349 144.102 142.328 144.123 142.303 144.137C142.278 144.15 142.251 144.155 142.225 144.15V144.143Z" fill="#2E353A"/>
<path d="M138.027 146.69C138.027 147.049 138.216 147.325 138.405 147.311C138.594 147.297 138.733 147.001 138.711 146.621C138.689 146.242 138.527 145.986 138.338 146C138.149 146.014 138.01 146.304 138.027 146.69Z" fill="#2E353A"/>
<path d="M141.296 146.434C141.296 146.793 141.48 147.069 141.669 147.055C141.858 147.042 141.991 146.745 141.975 146.365C141.958 145.986 141.791 145.73 141.602 145.744C141.413 145.758 141.274 146.075 141.296 146.434Z" fill="#2E353A"/>
<path d="M141.524 145.786L142.203 145.489C142.203 145.489 141.88 146.186 141.524 145.786Z" fill="#2E353A"/>
<path d="M138.255 146.041L138.939 145.737C138.939 145.737 138.611 146.441 138.255 146.041Z" fill="#2E353A"/>
<path d="M138.383 150.285C138.306 150.176 138.237 150.058 138.177 149.934C138.166 149.917 138.16 149.896 138.16 149.875C138.16 149.853 138.166 149.833 138.177 149.816C138.191 149.803 138.207 149.796 138.224 149.796C138.241 149.796 138.258 149.803 138.272 149.816C138.422 150.129 138.63 150.394 138.878 150.588C139.126 150.782 139.408 150.901 139.701 150.934C139.716 150.94 139.729 150.951 139.738 150.966C139.748 150.982 139.753 151.001 139.753 151.02C139.753 151.04 139.748 151.059 139.738 151.075C139.729 151.09 139.716 151.101 139.701 151.107C139.448 151.084 139.202 151 138.976 150.859C138.75 150.718 138.548 150.523 138.383 150.285Z" fill="#263238"/>
<path opacity="0.4" d="M133.913 173.218C133.357 170.098 131.449 164.722 131.449 164.722L130.065 164.246L129.387 165.405C130.593 169.132 132.723 175.067 132.778 184.867C135.447 184.763 138.399 180.091 138.399 180.091L136.887 175.95C135.202 176.985 134.452 176.364 133.913 173.218Z" fill="black"/>
<path d="M133.295 148.029C133.295 148.029 135.586 146.731 134.252 144.295C134.252 144.295 136.598 144.695 136.793 141.852C136.793 141.852 138.878 143.156 140.051 141.128C140.051 141.128 142.275 142.694 142.786 140.734C143.298 138.774 141.563 138.257 141.563 138.257C141.563 138.257 141.83 136.324 140.929 135.814C140.63 135.68 140.309 135.641 139.994 135.7C139.68 135.759 139.382 135.915 139.128 136.152C139.128 136.152 138.955 133.847 137.46 133.937C136.994 133.991 136.544 134.177 136.145 134.481C135.745 134.785 135.408 135.198 135.158 135.69C134.746 135.371 134.278 135.18 133.794 135.134C133.31 135.089 132.824 135.189 132.378 135.427C130.893 136.262 130.649 138.774 130.649 138.774C130.649 138.774 128.981 139.195 128.708 140.796C128.436 142.397 128.97 142.943 128.97 142.943C128.97 142.943 128.069 144.482 128.358 145.903C128.647 147.325 129.248 147.283 129.248 147.283C129.139 148.396 129.36 149.519 129.87 150.444C130.699 151.679 131.327 151.134 131.327 151.134C131.327 151.134 131.6 153.895 133.123 153.612C134.646 153.329 133.295 148.029 133.295 148.029Z" fill="#263238"/>
<path d="M131.616 148.091C131.856 148.892 132.342 149.543 132.967 149.899C133.801 150.368 134.352 149.485 134.235 148.422C134.135 147.47 133.573 146.069 132.684 146.048C132.372 146.056 132.074 146.216 131.857 146.493C131.639 146.771 131.519 147.145 131.522 147.532C131.523 147.724 131.555 147.914 131.616 148.091Z" fill="#FFC3BD"/>
<path d="M133.296 159.222L134.196 155.951C135.147 156.4 136.171 156.561 137.182 156.42C138.294 156.262 138.255 155.641 138.255 155.641L140.479 158.028L139.528 159.54L137.821 158.567L136.531 160.347L133.296 159.222Z" fill="#263238"/>
<path opacity="0.7" d="M133.296 159.222L134.196 155.951C135.147 156.4 136.171 156.561 137.182 156.42C138.294 156.262 138.255 155.641 138.255 155.641L140.479 158.028L139.528 159.54L137.821 158.567L136.531 160.347L133.296 159.222Z" fill="white"/>
<path d="M145.594 172.134H143.448C143.348 172.139 143.249 172.114 143.158 172.062C143.067 172.01 142.988 171.932 142.926 171.834C142.864 171.736 142.822 171.622 142.802 171.5C142.783 171.379 142.787 171.253 142.814 171.133L144.004 164.149C144.056 163.874 144.179 163.627 144.355 163.446C144.531 163.265 144.749 163.161 144.977 163.149H147.134C147.234 163.145 147.333 163.171 147.423 163.223C147.513 163.276 147.591 163.354 147.653 163.452C147.714 163.549 147.756 163.663 147.775 163.784C147.794 163.905 147.79 164.031 147.763 164.149L146.567 171.147C146.513 171.42 146.389 171.664 146.213 171.842C146.038 172.02 145.821 172.123 145.594 172.134Z" fill="#0B1220"/>
<path opacity="0.3" d="M145.594 172.134H143.448C143.348 172.139 143.249 172.114 143.158 172.062C143.067 172.01 142.988 171.932 142.926 171.834C142.864 171.736 142.822 171.622 142.802 171.5C142.783 171.379 142.787 171.253 142.814 171.133L144.004 164.149C144.056 163.874 144.179 163.627 144.355 163.446C144.531 163.265 144.749 163.161 144.977 163.149H147.134C147.234 163.145 147.333 163.171 147.423 163.223C147.513 163.276 147.591 163.354 147.653 163.452C147.714 163.549 147.756 163.663 147.775 163.784C147.794 163.905 147.79 164.031 147.763 164.149L146.567 171.147C146.513 171.42 146.389 171.664 146.213 171.842C146.038 172.02 145.821 172.123 145.594 172.134Z" fill="white"/>
<path d="M145.911 172.134H143.759C143.659 172.139 143.56 172.114 143.469 172.062C143.378 172.01 143.299 171.932 143.237 171.834C143.175 171.736 143.133 171.622 143.114 171.5C143.094 171.379 143.098 171.253 143.126 171.133L144.321 164.149C144.373 163.874 144.496 163.627 144.672 163.446C144.848 163.265 145.066 163.161 145.294 163.149H147.451C147.551 163.145 147.65 163.171 147.74 163.223C147.83 163.276 147.908 163.354 147.97 163.452C148.031 163.549 148.073 163.663 148.092 163.784C148.111 163.905 148.107 164.031 148.08 164.149L146.884 171.147C146.83 171.42 146.706 171.664 146.53 171.842C146.355 172.02 146.138 172.123 145.911 172.134Z" fill="#0B1220"/>
<path opacity="0.7" d="M145.911 172.134H143.759C143.659 172.139 143.56 172.114 143.469 172.062C143.378 172.01 143.299 171.932 143.237 171.834C143.175 171.736 143.133 171.622 143.114 171.5C143.094 171.379 143.098 171.253 143.126 171.133L144.321 164.149C144.373 163.874 144.496 163.627 144.672 163.446C144.848 163.265 145.066 163.161 145.294 163.149H147.451C147.551 163.145 147.65 163.171 147.74 163.223C147.83 163.276 147.908 163.354 147.97 163.452C148.031 163.549 148.073 163.663 148.092 163.784C148.111 163.905 148.107 164.031 148.08 164.149L146.884 171.147C146.83 171.42 146.706 171.664 146.53 171.842C146.355 172.02 146.138 172.123 145.911 172.134Z" fill="white"/>
<path d="M145.055 165.219H145.266C145.42 165.209 145.568 165.135 145.685 165.011C145.803 164.886 145.884 164.717 145.917 164.529L145.961 164.267C145.983 164.186 145.988 164.1 145.977 164.015C145.966 163.931 145.938 163.851 145.897 163.783C145.855 163.715 145.801 163.661 145.738 163.625C145.676 163.589 145.607 163.572 145.539 163.577H145.327C145.173 163.588 145.026 163.661 144.908 163.786C144.791 163.91 144.709 164.079 144.677 164.267L144.632 164.529C144.61 164.61 144.605 164.697 144.616 164.781C144.627 164.865 144.655 164.945 144.697 165.013C144.738 165.081 144.793 165.135 144.855 165.171C144.918 165.207 144.986 165.224 145.055 165.219Z" fill="#0B1220"/>
<path d="M145.572 164.018C145.559 164.095 145.526 164.164 145.477 164.215C145.429 164.265 145.368 164.293 145.305 164.294C145.277 164.297 145.249 164.291 145.223 164.277C145.197 164.264 145.175 164.242 145.157 164.215C145.14 164.188 145.128 164.155 145.123 164.121C145.117 164.087 145.119 164.052 145.127 164.018C145.143 163.942 145.177 163.874 145.226 163.824C145.276 163.775 145.336 163.746 145.4 163.742C145.427 163.741 145.454 163.748 145.479 163.762C145.504 163.776 145.526 163.798 145.543 163.825C145.56 163.852 145.572 163.884 145.577 163.917C145.582 163.951 145.58 163.986 145.572 164.018Z" fill="#263238"/>
<path d="M145.438 164.819C145.423 164.895 145.388 164.963 145.339 165.013C145.29 165.063 145.229 165.092 145.166 165.095C145.138 165.096 145.111 165.089 145.086 165.075C145.061 165.061 145.039 165.039 145.021 165.012C145.004 164.986 144.992 164.954 144.986 164.921C144.981 164.887 144.981 164.852 144.988 164.819C145.004 164.743 145.038 164.675 145.088 164.625C145.137 164.575 145.197 164.547 145.261 164.543C145.288 164.542 145.316 164.549 145.341 164.563C145.366 164.578 145.388 164.599 145.405 164.626C145.422 164.653 145.434 164.684 145.44 164.718C145.446 164.751 145.445 164.786 145.438 164.819Z" fill="#263238"/>
<path d="M151.61 175.033L148.591 172.141C148.591 172.141 147.412 168.953 146.595 168.552C146.377 168.472 146.145 168.477 145.929 168.566C145.713 168.655 145.525 168.823 145.388 169.049C144.91 169.781 144.86 172.093 145.344 172.824C145.828 173.556 147.301 174.039 147.301 174.039L150.126 177.69L151.61 175.033Z" fill="#FFC3BD"/>
<path d="M152.344 178.242C150.937 179.884 149.525 177.869 148.085 175.84C148.536 175.572 148.935 175.187 149.256 174.711C149.576 174.234 149.81 173.678 149.942 173.08C149.942 173.08 154.196 176.088 152.344 178.242Z" fill="#263238"/>
<path opacity="0.7" d="M148.091 175.84L148.508 176.427C149.436 175.791 150.134 174.739 150.459 173.487C150.159 173.231 149.948 173.086 149.948 173.086C149.815 173.684 149.58 174.239 149.26 174.714C148.94 175.189 148.541 175.573 148.091 175.84Z" fill="white"/>
<path d="M138.566 175.033L141.585 172.141C141.585 172.141 142.764 168.953 143.581 168.552C143.799 168.472 144.032 168.477 144.248 168.566C144.463 168.655 144.652 168.823 144.788 169.049C145.266 169.781 145.316 172.093 144.832 172.824C144.349 173.556 142.875 174.039 142.875 174.039L140.051 177.69L138.566 175.033Z" fill="#FFC3BD"/>
<path d="M127.747 171.506C127.263 169.125 126.724 163.163 128.581 161.265C130.438 159.367 131.505 164.557 132.239 168.553C132.973 172.548 133.351 177.904 134.991 177.076C136.473 176.156 137.889 175.08 139.222 173.86L141.107 177.158C141.107 177.158 135.353 185.391 132.823 182.962C130.293 180.533 128.364 174.522 127.747 171.506Z" fill="#263238"/>
<path opacity="0.7" d="M138.522 174.48L140.457 178.035C140.863 177.51 141.107 177.158 141.107 177.158L139.222 173.859C139.222 173.859 138.944 174.115 138.522 174.48Z" fill="white"/>
</svg>
