<svg width="224" height="171" viewBox="0 0 224 171" fill="none" xmlns="http://www.w3.org/2000/svg">
<path d="M71.2858 34.5698H28.616V65.3261H71.2858V34.5698Z" fill="#535353"/>
<mask id="mask0_84_7459" style="mask-type:luminance" maskUnits="userSpaceOnUse" x="28" y="34" width="44" height="32">
<path d="M71.2858 34.5698H28.616V65.3261H71.2858V34.5698Z" fill="white"/>
</mask>
<g mask="url(#mask0_84_7459)">
<path opacity="0.37" d="M71.2858 34.5698H28.616V65.3261H71.2858V34.5698Z" fill="black"/>
</g>
<path d="M59.0234 34.5698H28.616V65.3261H59.0234V34.5698Z" fill="#535353"/>
<path d="M46.9052 34.5698H40.3716V43.1551H46.9052V34.5698Z" fill="white"/>
<path d="M56.1466 45.6631H48.5746V48.7312H56.1466V45.6631Z" fill="white"/>
<path d="M52.6806 56.5909L44.877 55.0581L43.7263 58.7484L51.53 60.2813L52.6806 56.5909Z" fill="white"/>
<path d="M103.084 34.5698H60.4147V65.3261H103.084V34.5698Z" fill="#535353"/>
<mask id="mask1_84_7459" style="mask-type:luminance" maskUnits="userSpaceOnUse" x="60" y="34" width="44" height="32">
<path d="M103.084 34.5698H60.4147V65.3261H103.084V34.5698Z" fill="white"/>
</mask>
<g mask="url(#mask1_84_7459)">
<path opacity="0.37" d="M103.084 34.5698H60.4147V65.3261H103.084V34.5698Z" fill="black"/>
</g>
<path d="M90.8221 34.5698H60.4147V65.3261H90.8221V34.5698Z" fill="#535353"/>
<path d="M78.7038 34.5698H72.1702V43.1551H78.7038V34.5698Z" fill="white"/>
<path d="M87.9452 45.6631H80.3732V48.7312H87.9452V45.6631Z" fill="white"/>
<path d="M84.4771 56.5929L76.6735 55.0601L75.5228 58.7504L83.3265 60.2832L84.4771 56.5929Z" fill="white"/>
<path d="M134.883 34.5698H92.2131V65.3261H134.883V34.5698Z" fill="#535353"/>
<mask id="mask2_84_7459" style="mask-type:luminance" maskUnits="userSpaceOnUse" x="92" y="34" width="43" height="32">
<path d="M134.883 34.5698H92.2131V65.3261H134.883V34.5698Z" fill="white"/>
</mask>
<g mask="url(#mask2_84_7459)">
<path opacity="0.37" d="M134.883 34.5698H92.2131V65.3261H134.883V34.5698Z" fill="black"/>
</g>
<path d="M122.621 34.5698H92.2131V65.3261H122.621V34.5698Z" fill="#535353"/>
<path d="M110.502 34.5698H103.969V43.1551H110.502V34.5698Z" fill="white"/>
<path d="M119.744 45.6631H112.172V48.7312H119.744V45.6631Z" fill="white"/>
<path d="M116.274 56.5949L108.47 55.062L107.319 58.7523L115.123 60.2852L116.274 56.5949Z" fill="white"/>
<path d="M166.682 34.5698H124.012V65.3261H166.682V34.5698Z" fill="#535353"/>
<mask id="mask3_84_7459" style="mask-type:luminance" maskUnits="userSpaceOnUse" x="124" y="34" width="43" height="32">
<path d="M166.682 34.5698H124.012V65.3261H166.682V34.5698Z" fill="white"/>
</mask>
<g mask="url(#mask3_84_7459)">
<path opacity="0.37" d="M166.682 34.5698H124.012V65.3261H166.682V34.5698Z" fill="black"/>
</g>
<path d="M154.419 34.5698H124.012V65.3261H154.419V34.5698Z" fill="#535353"/>
<path d="M142.301 34.5698H135.767V43.1551H142.301V34.5698Z" fill="white"/>
<path d="M151.543 45.6631H143.97V48.7312H151.543V45.6631Z" fill="white"/>
<path d="M148.075 56.5968L140.272 55.064L139.121 58.7543L146.925 60.2871L148.075 56.5968Z" fill="white"/>
<path d="M71.2858 76.7666H28.616V107.523H71.2858V76.7666Z" fill="#535353"/>
<mask id="mask4_84_7459" style="mask-type:luminance" maskUnits="userSpaceOnUse" x="28" y="76" width="44" height="32">
<path d="M71.2858 76.7666H28.616V107.523H71.2858V76.7666Z" fill="white"/>
</mask>
<g mask="url(#mask4_84_7459)">
<path opacity="0.37" d="M71.2858 76.7666H28.616V107.523H71.2858V76.7666Z" fill="black"/>
</g>
<path d="M59.0234 76.7666H28.616V107.523H59.0234V76.7666Z" fill="#535353"/>
<path d="M46.9052 76.7666H40.3716V85.3519H46.9052V76.7666Z" fill="white"/>
<path d="M56.1466 87.8599H48.5746V90.928H56.1466V87.8599Z" fill="white"/>
<path d="M52.6734 98.7863L44.8698 97.2534L43.7191 100.944L51.5228 102.477L52.6734 98.7863Z" fill="white"/>
<path d="M103.084 76.7666H60.4147V107.523H103.084V76.7666Z" fill="#535353"/>
<mask id="mask5_84_7459" style="mask-type:luminance" maskUnits="userSpaceOnUse" x="60" y="76" width="44" height="32">
<path d="M103.084 76.7666H60.4147V107.523H103.084V76.7666Z" fill="white"/>
</mask>
<g mask="url(#mask5_84_7459)">
<path opacity="0.37" d="M103.084 76.7666H60.4147V107.523H103.084V76.7666Z" fill="black"/>
</g>
<path d="M90.8221 76.7666H60.4147V107.523H90.8221V76.7666Z" fill="#535353"/>
<path d="M78.7038 76.7666H72.1702V85.3519H78.7038V76.7666Z" fill="white"/>
<path d="M87.9452 87.8599H80.3732V90.928H87.9452V87.8599Z" fill="white"/>
<path d="M84.4749 98.7882L76.6713 97.2554L75.5207 100.946L83.3243 102.479L84.4749 98.7882Z" fill="white"/>
<path d="M134.883 76.7666H92.2131V107.523H134.883V76.7666Z" fill="#535353"/>
<mask id="mask6_84_7459" style="mask-type:luminance" maskUnits="userSpaceOnUse" x="92" y="76" width="43" height="32">
<path d="M134.883 76.7666H92.2131V107.523H134.883V76.7666Z" fill="white"/>
</mask>
<g mask="url(#mask6_84_7459)">
<path opacity="0.37" d="M134.883 76.7666H92.2131V107.523H134.883V76.7666Z" fill="black"/>
</g>
<path d="M122.621 76.7666H92.2131V107.523H122.621V76.7666Z" fill="#535353"/>
<path d="M110.502 76.7666H103.969V85.3519H110.502V76.7666Z" fill="white"/>
<path d="M119.744 87.8599H112.172V90.928H119.744V87.8599Z" fill="white"/>
<path d="M116.272 98.7902L108.468 97.2573L107.317 100.948L115.121 102.48L116.272 98.7902Z" fill="white"/>
<path d="M166.682 76.7666H124.012V107.523H166.682V76.7666Z" fill="#535353"/>
<mask id="mask7_84_7459" style="mask-type:luminance" maskUnits="userSpaceOnUse" x="124" y="76" width="43" height="32">
<path d="M166.682 76.7666H124.012V107.523H166.682V76.7666Z" fill="white"/>
</mask>
<g mask="url(#mask7_84_7459)">
<path opacity="0.37" d="M166.682 76.7666H124.012V107.523H166.682V76.7666Z" fill="black"/>
</g>
<path d="M154.419 76.7666H124.012V107.523H154.419V76.7666Z" fill="#535353"/>
<path d="M142.301 76.7666H135.767V85.3519H142.301V76.7666Z" fill="white"/>
<path d="M151.543 87.8599H143.97V90.928H151.543V87.8599Z" fill="white"/>
<path d="M148.068 98.7916L140.265 97.2588L139.114 100.949L146.918 102.482L148.068 98.7916Z" fill="white"/>
<path d="M71.2858 118.963H28.616V149.72H71.2858V118.963Z" fill="#535353"/>
<mask id="mask8_84_7459" style="mask-type:luminance" maskUnits="userSpaceOnUse" x="28" y="118" width="44" height="32">
<path d="M71.2858 118.963H28.616V149.72H71.2858V118.963Z" fill="white"/>
</mask>
<g mask="url(#mask8_84_7459)">
<path opacity="0.37" d="M71.2858 118.963H28.616V149.72H71.2858V118.963Z" fill="black"/>
</g>
<path d="M59.0234 118.963H28.616V149.72H59.0234V118.963Z" fill="#535353"/>
<path d="M46.9052 118.963H40.3716V127.549H46.9052V118.963Z" fill="white"/>
<path d="M56.1466 130.057H48.5746V133.125H56.1466V130.057Z" fill="white"/>
<path d="M52.6712 140.982L44.8676 139.449L43.7169 143.139L51.5206 144.672L52.6712 140.982Z" fill="white"/>
<path d="M103.084 118.963H60.4147V149.72H103.084V118.963Z" fill="#535353"/>
<mask id="mask9_84_7459" style="mask-type:luminance" maskUnits="userSpaceOnUse" x="60" y="118" width="44" height="32">
<path d="M103.084 118.963H60.4147V149.72H103.084V118.963Z" fill="white"/>
</mask>
<g mask="url(#mask9_84_7459)">
<path opacity="0.37" d="M103.084 118.963H60.4147V149.72H103.084V118.963Z" fill="black"/>
</g>
<path d="M90.8221 118.963H60.4147V149.72H90.8221V118.963Z" fill="#535353"/>
<path d="M78.7038 118.963H72.1702V127.549H78.7038V118.963Z" fill="white"/>
<path d="M87.9452 130.057H80.3732V133.125H87.9452V130.057Z" fill="white"/>
<path d="M84.4727 140.984L76.6691 139.451L75.5185 143.141L83.3221 144.674L84.4727 140.984Z" fill="white"/>
<path d="M134.883 118.963H92.2131V149.72H134.883V118.963Z" fill="#535353"/>
<mask id="mask10_84_7459" style="mask-type:luminance" maskUnits="userSpaceOnUse" x="92" y="118" width="43" height="32">
<path d="M134.883 118.963H92.2131V149.72H134.883V118.963Z" fill="white"/>
</mask>
<g mask="url(#mask10_84_7459)">
<path opacity="0.37" d="M134.883 118.963H92.2131V149.72H134.883V118.963Z" fill="black"/>
</g>
<path d="M122.621 118.963H92.2131V149.72H122.621V118.963Z" fill="#535353"/>
<path d="M110.502 118.963H103.969V127.549H110.502V118.963Z" fill="white"/>
<path d="M119.744 130.057H112.172V133.125H119.744V130.057Z" fill="white"/>
<path d="M116.269 140.985L108.466 139.453L107.315 143.143L115.119 144.676L116.269 140.985Z" fill="white"/>
<path d="M166.682 118.963H124.012V149.72H166.682V118.963Z" fill="#535353"/>
<mask id="mask11_84_7459" style="mask-type:luminance" maskUnits="userSpaceOnUse" x="124" y="118" width="43" height="32">
<path d="M166.682 118.963H124.012V149.72H166.682V118.963Z" fill="white"/>
</mask>
<g mask="url(#mask11_84_7459)">
<path opacity="0.37" d="M166.682 118.963H124.012V149.72H166.682V118.963Z" fill="black"/>
</g>
<path d="M154.419 118.963H124.012V149.72H154.419V118.963Z" fill="#535353"/>
<path d="M142.301 118.963H135.767V127.549H142.301V118.963Z" fill="white"/>
<path d="M151.543 130.057H143.97V133.125H151.543V130.057Z" fill="white"/>
<path d="M148.066 140.987L140.262 139.455L139.112 143.145L146.915 144.678L148.066 140.987Z" fill="white"/>
<path d="M170.632 23.2676H21.5756V28.7886H170.632V23.2676Z" fill="#A3A3A3"/>
<path d="M170.632 64.2808H21.5756V69.8018H170.632V64.2808Z" fill="#A3A3A3"/>
<path d="M170.632 105.291H21.5756V110.812H170.632V105.291Z" fill="#A3A3A3"/>
<path d="M170.632 146.304H21.5756V151.825H170.632V146.304Z" fill="#A3A3A3"/>
<path d="M198.952 0H192.493V167.604H198.952V0Z" fill="#7A7A7A"/>
<path d="M61.3238 0H54.8647V167.604H61.3238V0Z" fill="#7A7A7A"/>
<path d="M197.462 23.2676H167.154V28.7886H197.462V23.2676Z" fill="#757575"/>
<path d="M197.462 64.2808H167.154V69.8018H197.462V64.2808Z" fill="#757575"/>
<path d="M197.462 105.291H167.154V110.812H197.462V105.291Z" fill="#757575"/>
<path d="M197.462 146.304H167.154V151.825H197.462V146.304Z" fill="#757575"/>
<path d="M27.5378 0H21.0787V167.604H27.5378V0Z" fill="#A3A3A3"/>
<path d="M99.0847 0H92.6256V167.604H99.0847V0Z" fill="#A3A3A3"/>
<path d="M170.632 0H164.173V167.604H170.632V0Z" fill="#A3A3A3"/>
<path d="M157.579 58.2515H106.89V94.7852H157.579V58.2515Z" fill="#535353"/>
<mask id="mask12_84_7459" style="mask-type:luminance" maskUnits="userSpaceOnUse" x="106" y="58" width="52" height="37">
<path d="M157.579 58.2515H106.89V94.7852H157.579V58.2515Z" fill="white"/>
</mask>
<g mask="url(#mask12_84_7459)">
<path opacity="0.37" d="M157.579 58.2515H106.89V94.7852H157.579V58.2515Z" fill="black"/>
</g>
<path d="M157.579 58.2515H106.89V94.7852H157.579V58.2515Z" stroke="#263238" stroke-linecap="round" stroke-linejoin="round"/>
<path d="M143.016 58.2515H106.89V94.7852H143.016V58.2515Z" fill="#535353" stroke="#263238" stroke-linecap="round" stroke-linejoin="round"/>
<path d="M128.613 58.2515H120.852V68.4497H128.613V58.2515Z" fill="white" stroke="#263238" stroke-linecap="round" stroke-linejoin="round"/>
<path d="M139.598 71.4268H130.6V75.0707H139.598V71.4268Z" fill="white"/>
<path d="M135.468 84.4107L126.198 82.5898L124.83 86.9769L134.1 88.7977L135.468 84.4107Z" fill="white"/>
<path d="M127.092 131.066H76.4033V167.6H127.092V131.066Z" fill="#535353"/>
<mask id="mask13_84_7459" style="mask-type:luminance" maskUnits="userSpaceOnUse" x="76" y="131" width="52" height="37">
<path d="M127.092 131.066H76.4033V167.6H127.092V131.066Z" fill="white"/>
</mask>
<g mask="url(#mask13_84_7459)">
<path opacity="0.37" d="M127.092 131.066H76.4033V167.6H127.092V131.066Z" fill="black"/>
</g>
<path d="M127.092 131.066H76.4033V167.6H127.092V131.066Z" stroke="#263238" stroke-linecap="round" stroke-linejoin="round"/>
<path d="M112.53 131.066H76.4033V167.6H112.53V131.066Z" fill="#535353" stroke="#263238" stroke-linecap="round" stroke-linejoin="round"/>
<path d="M98.1257 131.066H90.3649V141.265H98.1257V131.066Z" fill="white" stroke="#263238" stroke-linecap="round" stroke-linejoin="round"/>
<path d="M88.9142 161.006H79.9161V164.65H88.9142V161.006Z" fill="white"/>
<path d="M107.812 144.204L98.5416 142.383L97.1738 146.77L106.444 148.591L107.812 144.204Z" fill="white"/>
<path d="M164.366 131.066H113.677V167.6H164.366V131.066Z" fill="#535353"/>
<mask id="mask14_84_7459" style="mask-type:luminance" maskUnits="userSpaceOnUse" x="113" y="131" width="52" height="37">
<path d="M164.366 131.066H113.677V167.6H164.366V131.066Z" fill="white"/>
</mask>
<g mask="url(#mask14_84_7459)">
<path opacity="0.37" d="M164.366 131.066H113.677V167.6H164.366V131.066Z" fill="black"/>
</g>
<path d="M164.366 131.066H113.677V167.6H164.366V131.066Z" stroke="#263238" stroke-linecap="round" stroke-linejoin="round"/>
<path d="M149.803 131.066H113.677V167.6H149.803V131.066Z" fill="#535353" stroke="#263238" stroke-linecap="round" stroke-linejoin="round"/>
<path d="M135.4 131.066H127.639V141.265H135.4V131.066Z" fill="white" stroke="#263238" stroke-linecap="round" stroke-linejoin="round"/>
<path d="M146.385 144.246H137.387V147.89H146.385V144.246Z" fill="white"/>
<path d="M126.352 141.727L117.082 139.906L115.714 144.293L124.984 146.114L126.352 141.727Z" fill="white"/>
<path d="M202.127 131.066H151.438V167.6H202.127V131.066Z" fill="#535353"/>
<mask id="mask15_84_7459" style="mask-type:luminance" maskUnits="userSpaceOnUse" x="151" y="131" width="52" height="37">
<path d="M202.127 131.066H151.438V167.6H202.127V131.066Z" fill="white"/>
</mask>
<g mask="url(#mask15_84_7459)">
<path opacity="0.37" d="M202.127 131.066H151.438V167.6H202.127V131.066Z" fill="black"/>
</g>
<path d="M202.127 131.066H151.438V167.6H202.127V131.066Z" stroke="#263238" stroke-linecap="round" stroke-linejoin="round"/>
<path d="M187.564 131.066H151.438V167.6H187.564V131.066Z" fill="#535353" stroke="#263238" stroke-linecap="round" stroke-linejoin="round"/>
<path d="M173.161 131.066H165.4V141.265H173.161V131.066Z" fill="white" stroke="#263238" stroke-linecap="round" stroke-linejoin="round"/>
<path d="M184.146 144.246H175.148V147.89H184.146V144.246Z" fill="white"/>
<path d="M164.11 141.73L154.84 139.909L153.472 144.296L162.742 146.117L164.11 141.73Z" fill="white"/>
<path d="M144.572 94.6313H93.8827V131.165H144.572V94.6313Z" fill="#535353"/>
<mask id="mask16_84_7459" style="mask-type:luminance" maskUnits="userSpaceOnUse" x="93" y="94" width="52" height="38">
<path d="M144.572 94.6313H93.8827V131.165H144.572V94.6313Z" fill="white"/>
</mask>
<g mask="url(#mask16_84_7459)">
<path opacity="0.37" d="M144.572 94.6313H93.8827V131.165H144.572V94.6313Z" fill="black"/>
</g>
<path d="M144.572 94.6313H93.8827V131.165H144.572V94.6313Z" stroke="#263238" stroke-linecap="round" stroke-linejoin="round"/>
<path d="M130.009 94.6313H93.8827V131.165H130.009V94.6313Z" fill="#535353" stroke="#263238" stroke-linecap="round" stroke-linejoin="round"/>
<path d="M115.6 94.6313H107.839V104.83H115.6V94.6313Z" fill="white" stroke="#263238" stroke-linecap="round" stroke-linejoin="round"/>
<path d="M126.591 107.811H117.593V111.454H126.591V107.811Z" fill="white"/>
<path d="M106.553 105.293L97.2833 103.472L95.9155 107.859L105.185 109.68L106.553 105.293Z" fill="white"/>
<path d="M184.817 94.6313H134.128V131.165H184.817V94.6313Z" fill="#535353"/>
<mask id="mask17_84_7459" style="mask-type:luminance" maskUnits="userSpaceOnUse" x="134" y="94" width="51" height="38">
<path d="M184.817 94.6313H134.128V131.165H184.817V94.6313Z" fill="white"/>
</mask>
<g mask="url(#mask17_84_7459)">
<path opacity="0.37" d="M184.817 94.6313H134.128V131.165H184.817V94.6313Z" fill="black"/>
</g>
<path d="M184.817 94.6313H134.128V131.165H184.817V94.6313Z" stroke="#263238" stroke-linecap="round" stroke-linejoin="round"/>
<path d="M170.254 94.6313H134.128V131.165H170.254V94.6313Z" fill="#535353" stroke="#263238" stroke-linecap="round" stroke-linejoin="round"/>
<path d="M155.845 94.6313H148.084V104.83H155.845V94.6313Z" fill="white" stroke="#263238" stroke-linecap="round" stroke-linejoin="round"/>
<path d="M166.836 107.811H157.838V111.454H166.836V107.811Z" fill="white"/>
<path d="M149.032 113.932L139.762 112.111L138.394 116.498L147.664 118.319L149.032 113.932Z" fill="white"/>
<path d="M5.37805 167.6H223" stroke="#263238" stroke-linecap="round" stroke-linejoin="round"/>
<path d="M44.0333 155.824C44.0333 155.824 41.9465 159.188 40.4559 161.089C38.9654 162.99 36.1979 165.49 36.4811 167.69C36.7643 169.891 39.651 170.128 42.6222 168.874C45.5934 167.619 48.2665 165.103 49.0813 163.214C49.8962 161.325 52.45 159.756 52.45 157.634C52.45 155.513 52.2512 155.268 51.2625 155.039C50.2738 154.811 45.022 154.487 44.0333 155.824Z" fill="white" stroke="#263238" stroke-linecap="round" stroke-linejoin="round"/>
<path d="M52.4499 157.63C52.4499 157.319 52.4499 157.051 52.4499 156.814C52.1752 157.47 51.8431 158.111 51.4562 158.731C50.3631 160.462 48.7781 161.491 48.1869 163.605C47.5956 165.719 43.8295 168.164 40.5602 168.791C37.2909 169.418 36.5854 167.3 36.5854 167.3H36.4661C36.454 167.431 36.454 167.563 36.4661 167.694C36.7642 169.895 39.636 170.132 42.6072 168.878C45.5784 167.623 48.2515 165.107 49.0663 163.218C49.8812 161.329 52.4499 159.752 52.4499 157.63Z" fill="#263238" stroke="#263238" stroke-linecap="round" stroke-linejoin="round"/>
<path d="M44.4308 157.236C44.4308 157.236 45.6232 158.573 49.5832 158.183" stroke="#263238" stroke-linecap="round" stroke-linejoin="round"/>
<path d="M44.3314 158.341C45.5083 159.076 47.0018 159.414 48.4901 159.283" stroke="#263238" stroke-linecap="round" stroke-linejoin="round"/>
<path d="M43.9338 159.283C44.3711 159.658 44.9141 159.947 45.5186 160.124C46.123 160.302 46.7717 160.363 47.4118 160.304" stroke="#263238" stroke-linecap="round" stroke-linejoin="round"/>
<path d="M43.5364 160.62C43.5364 160.62 44.232 161.72 46.905 161.483" stroke="#263238" stroke-linecap="round" stroke-linejoin="round"/>
<path d="M69.3829 158.794C70.873 160.656 72.9216 162.195 75.3451 163.274C79.2057 164.926 84.1593 166.034 84.5518 166.823C84.7176 167.109 84.7491 167.433 84.6407 167.736C84.5323 168.039 84.2911 168.301 83.9605 168.475C83.4637 168.708 76.1351 168.87 72.2745 168.318C70.0957 167.948 67.8685 167.789 65.6416 167.845C63.8578 167.845 59.9973 168.239 59.5004 166.508C59.0036 164.776 60.2904 158.49 60.2904 158.49C60.2904 158.49 66.1136 159.831 69.3829 158.794Z" fill="white" stroke="#263238" stroke-miterlimit="10"/>
<path d="M83.9405 168.479C84.1964 168.345 84.3993 168.156 84.5259 167.934C84.6524 167.712 84.6975 167.467 84.656 167.225C83.1186 167.523 81.556 167.731 79.9806 167.848C76.0057 168.164 70.0783 167.142 65.4228 166.985C62.0044 166.87 60.1362 166.243 59.386 165.924C59.3994 166.121 59.431 166.318 59.4804 166.511C59.9772 168.243 63.8378 167.848 65.6215 167.848C67.8484 167.793 70.0756 167.952 72.2545 168.322C76.115 168.87 83.4436 168.712 83.9405 168.479Z" fill="#263238" stroke="#263238" stroke-miterlimit="10"/>
<path d="M70.8683 160.62C70.105 161.103 69.4942 161.722 69.0846 162.426" stroke="#263238" stroke-miterlimit="10"/>
<path d="M72.0559 161.795C72.0559 161.795 70.769 162.663 70.769 163.211" stroke="#263238" stroke-miterlimit="10"/>
<path d="M73.3426 162.583C73.0093 163.029 72.7441 163.504 72.5526 163.999" stroke="#263238" stroke-miterlimit="10"/>
<path d="M75.3252 163.29C75.3252 163.29 74.5303 163.842 74.5303 164.39" stroke="#263238" stroke-miterlimit="10"/>
<path d="M41.4149 75.3192C41.4149 75.3192 38.2648 87.2171 38.5132 93.7241C38.7617 100.231 49.9409 116.4 49.9409 116.4C49.9409 116.4 43.9786 128.034 43.7302 133.16C43.4818 138.287 43.9886 154.791 43.9886 154.791C43.9886 154.791 46.4728 155.935 48.7236 155.935C50.9743 155.935 53.6623 155.036 53.6623 155.036L59.3811 137.289L59.6295 158.782C61.2838 159.56 63.1721 159.969 65.0949 159.965C67.0509 159.956 68.9571 159.474 70.5603 158.585C70.5603 158.585 74.5351 135.909 75.032 132.163C75.5288 128.416 78.7584 117.177 79.0068 116.388C79.2552 115.599 83.9753 103.177 83.9753 93.1207C83.9753 83.0645 80.3334 77.0189 80.3334 77.0189C80.3334 77.0189 67.5792 74.7829 58.1389 74.5857C52.5483 74.4634 46.9545 74.7087 41.4149 75.3192Z" fill="#263238" stroke="#263238" stroke-linecap="round" stroke-linejoin="round"/>
<path d="M61.1201 134.344C61.1201 134.344 67.5792 119.752 67.5792 116.203C67.5792 112.654 63.356 90.5693 63.356 90.5693" stroke="#878787" stroke-miterlimit="10"/>
<path d="M65.0948 97.2736C65.0948 97.2736 68.8213 93.9215 70.0634 91.9497" stroke="#878787" stroke-miterlimit="10"/>
<path d="M79.8365 45.0877C79.8365 45.0877 84.969 47.4539 87.7862 51.0031C90.6033 54.5524 96.7296 69.5382 96.3967 73.3477C96.0638 77.1572 94.5782 78.2141 90.2705 77.5555C85.9627 76.8969 85.6348 73.0874 84.6411 69.9325C83.6474 66.7776 78.346 46.7953 78.346 46.7953L78.182 44.9536L79.8365 45.0877Z" fill="white" stroke="#263238" stroke-linecap="round" stroke-linejoin="round"/>
<path d="M96.3967 73.3476C96.5656 71.4073 95.0601 66.5646 93.1671 61.8125L82.6885 62.964C83.5679 66.1978 84.3231 68.915 84.6411 69.9206C85.6348 73.0755 85.9627 76.885 90.2705 77.5436C94.5782 78.2022 96.0687 77.1611 96.3967 73.3476Z" fill="#CFCFCF" stroke="#263238" stroke-linecap="round" stroke-linejoin="round"/>
<path d="M45.5536 43.9043C45.5536 43.9043 41.5788 44.559 40.5851 50.08C39.5914 55.6011 41.9117 64.6714 41.9117 64.6714L41.4148 75.3192C41.4148 75.3192 57.9749 78.7383 64.7669 78.7383C71.5589 78.7383 80.3334 77.0308 80.3334 77.0308C80.3334 77.0308 76.6914 50.4744 76.0256 48.2423C75.3599 46.0102 72.3837 43.7703 69.8994 42.3269C67.4152 40.8835 61.12 41.0097 57.4781 41.7984C53.8362 42.5872 48.6987 44.1646 48.6987 44.1646L45.5536 43.9043Z" fill="white" stroke="#263238" stroke-linecap="round" stroke-linejoin="round"/>
<path d="M57.4782 40.2207C57.4782 40.2207 60.9562 51.3969 61.289 59.0199C61.6219 66.643 59.7985 90.3047 59.7985 90.3047C59.7985 90.3047 52.0128 90.5689 46.3834 89.7802C40.7541 88.9915 36.7743 88.5971 36.7743 88.5971L41.7428 64.0165C41.7428 64.0165 48.5348 64.4109 50.0254 60.5974C51.5159 56.7839 49.5285 49.1609 47.7051 46.7947C45.8816 44.4285 45.5537 43.904 45.5537 43.904L57.4782 40.2207Z" fill="#535353" stroke="#263238" stroke-linecap="round" stroke-linejoin="round"/>
<path d="M72.5477 50.6088C72.5477 50.6088 76.1946 61.651 75.8617 72.6931C75.5288 83.7352 75.3649 89.6507 75.3649 89.6507C75.3649 89.6507 83.3145 89.2563 87.7862 87.809C87.7862 87.809 85.3019 62.0453 82.9816 54.4184C80.6613 46.7914 79.8366 45.0877 79.8366 45.0877L70.5603 42.063L72.5477 50.6088Z" fill="#535353" stroke="#263238" stroke-linecap="round" stroke-linejoin="round"/>
<path d="M61.0456 38.076C61.0456 38.076 57.5676 38.5887 56.6534 40.0241C55.7392 41.4596 60.2705 53.251 60.2705 53.251L66.8588 48.9446L74.9973 52.6358C74.9973 52.6358 73.4471 43.7154 70.0884 40.6393C66.7296 37.5633 61.0456 38.076 61.0456 38.076Z" fill="white" stroke="#263238" stroke-linecap="round" stroke-linejoin="round"/>
<path d="M59.6245 30.5947C59.6245 30.5947 59.4953 40.9467 60.9163 43.6087C62.3373 46.2706 66.0836 50.1709 67.5046 49.5557C68.9256 48.9405 69.3132 41.4555 69.5715 40.9428C69.8299 40.4301 70.8633 36.2104 70.8633 36.2104C70.8633 36.2104 61.5622 34.1755 59.6245 30.5947Z" fill="#CFCFCF" stroke="#263238" stroke-linecap="round" stroke-linejoin="round"/>
<path d="M59.6245 30.5947C59.6245 30.5947 59.5748 34.7513 59.8977 38.482C61.3802 39.8754 63.4631 40.7807 65.7407 41.0217C67.0085 41.174 68.2992 41.1607 69.5615 40.9822C69.5594 40.9731 69.5594 40.9637 69.5615 40.9546C69.8199 40.442 70.8533 36.2223 70.8533 36.2223C70.8533 36.2223 61.5622 34.1755 59.6245 30.5947Z" fill="#263238" stroke="#263238" stroke-linecap="round" stroke-linejoin="round"/>
<path d="M74.1575 66.2134L73.1638 66.6946L67.4152 59.2372C67.3362 59.1329 67.3123 59.0082 67.3486 58.89C67.3849 58.7719 67.4785 58.6699 67.609 58.6062C67.6735 58.5744 67.7454 58.5531 67.8203 58.5435C67.8953 58.5339 67.9719 58.5361 68.0457 58.55C68.1196 58.5639 68.1893 58.5893 68.2508 58.6246C68.3122 58.66 68.3643 58.7047 68.404 58.756L74.1575 66.2134Z" fill="white" stroke="#263238" stroke-linecap="round" stroke-linejoin="round"/>
<path d="M45.5537 43.9043C45.5537 43.9043 41.7428 44.1646 39.4275 47.7138C37.1121 51.2631 33.4652 67.9604 32.7994 72.8229C32.1336 77.6854 35.7805 77.291 36.2774 77.291C36.7743 77.291 63.1075 70.3266 63.1075 70.3266L72.0509 69.5378C72.0509 69.5378 71.0571 70.1925 71.8869 70.1925C72.7166 70.1925 74.3712 68.8793 75.032 68.0905C75.6928 67.3018 73.0446 62.9638 72.0509 62.4393C71.0571 61.9148 62.1138 67.1717 62.1138 67.1717L44.7239 68.0905L49.1956 55.9954" fill="white"/>
<path d="M45.5537 43.9043C45.5537 43.9043 41.7428 44.1646 39.4275 47.7138C37.1121 51.2631 33.4652 67.9604 32.7994 72.8229C32.1336 77.6854 35.7805 77.291 36.2774 77.291C36.7743 77.291 63.1075 70.3266 63.1075 70.3266L72.0509 69.5378C72.0509 69.5378 71.0571 70.1925 71.8869 70.1925C72.7166 70.1925 74.3712 68.8793 75.032 68.0905C75.6928 67.3018 73.0446 62.9638 72.0509 62.4393C71.0571 61.9148 62.1138 67.1717 62.1138 67.1717L44.7239 68.0905L49.1956 55.9954" stroke="#263238" stroke-linecap="round" stroke-linejoin="round"/>
<path d="M72.0508 62.4396C71.0571 61.9112 62.1137 67.172 62.1137 67.172L44.7238 68.0909L45.8269 65.1095L34.7023 63.118C33.7831 67.1681 33.0627 70.9105 32.7994 72.8232C32.1385 77.6857 35.7805 77.2913 36.2773 77.2913C36.7742 77.2913 63.1074 70.3269 63.1074 70.3269L72.0508 69.5382C72.0508 69.5382 71.0571 70.1928 71.8868 70.1928C72.7166 70.1928 74.3711 68.8796 75.0319 68.0909C75.6927 67.3021 73.0445 62.9641 72.0508 62.4396Z" fill="#CFCFCF" stroke="#263238" stroke-linecap="round" stroke-linejoin="round"/>
<path d="M72.0508 62.4396C71.0571 61.9112 62.1137 67.172 62.1137 67.172L59.5798 67.3061C59.5701 68.5793 59.9648 69.8338 60.7275 70.9539L63.1074 70.3269L72.0508 69.5382C72.0508 69.5382 71.0571 70.1928 71.8868 70.1928C72.7166 70.1928 74.3711 68.8796 75.0319 68.0909C75.6927 67.3021 73.0445 62.9641 72.0508 62.4396Z" fill="#666666" stroke="#263238" stroke-linecap="round" stroke-linejoin="round"/>
<path d="M80.8303 56.2598L63.9373 75.059L86.1317 74.4004L102.195 57.0485L80.8303 56.2598Z" fill="#263238" stroke="#263238" stroke-linecap="round" stroke-linejoin="round"/>
<path d="M88.288 55.7075L86.9912 57.419L96.7047 57.5926L98.0015 55.8771L88.288 55.7075Z" fill="#263238" stroke="#263238" stroke-linecap="round" stroke-linejoin="round"/>
<path d="M94.8514 66.9273C94.0886 67.1486 93.2942 67.2943 92.4864 67.3611C91.4927 67.3966 90.5785 67.7949 90.5785 68.1932C90.5785 68.5915 92.3523 68.6625 93.6242 68.6625C94.8961 68.6625 95.8948 68.4456 96.1085 67.7949C96.3221 67.1442 96.0339 66.5684 94.8514 66.9273Z" fill="#666666" stroke="#263238" stroke-linecap="round" stroke-linejoin="round"/>
<path d="M95.9943 65.1643C95.0326 65.444 94.0315 65.6294 93.0132 65.7164C91.7462 65.7598 90.5935 66.2646 90.5935 66.7654C90.5935 67.2662 92.8393 67.3609 94.4541 67.3609C96.0688 67.3609 97.3358 67.0888 97.624 66.2646C97.9122 65.4403 97.4948 64.7068 95.9943 65.1643Z" fill="#666666" stroke="#263238" stroke-linecap="round" stroke-linejoin="round"/>
<path d="M96.9135 63.6579C95.9518 63.9376 94.9507 64.1231 93.9323 64.21C92.6604 64.2534 91.5077 64.7582 91.5077 65.2591C91.5077 65.7599 93.7584 65.8545 95.3732 65.8545C96.988 65.8545 98.255 65.5824 98.5431 64.7582C98.8313 63.934 98.414 63.2005 96.9135 63.6579Z" fill="#666666" stroke="#263238" stroke-linecap="round" stroke-linejoin="round"/>
<path d="M97.5345 61.9543C96.5723 62.2319 95.5713 62.416 94.5533 62.5025C93.2864 62.5458 92.1337 63.0506 92.1337 63.5554C92.1337 64.0602 94.3794 64.1509 95.9942 64.1509C97.609 64.1509 98.876 63.8748 99.1641 63.0506C99.4523 62.2264 99.035 61.4968 97.5345 61.9543Z" fill="#666666" stroke="#263238" stroke-linecap="round" stroke-linejoin="round"/>
<path d="M43.4768 151.033C43.4768 151.033 43.3725 155.118 43.5762 155.765C43.7799 156.412 47.387 157.232 49.6477 157.232C51.9084 157.232 53.3542 156.838 53.7666 156.337C54.179 155.836 54.8945 152.496 54.8945 152.496C54.8945 152.496 46.8703 153.813 43.4768 151.033Z" fill="#666666" stroke="#263238" stroke-linecap="round" stroke-linejoin="round"/>
<path d="M54.8647 27.3137C53.254 26.8634 51.522 26.759 49.8441 27.0111C48.1662 27.2632 46.6021 27.8628 45.3102 28.7492C40.7888 31.8252 44.8133 37.362 49.5732 37.9773C54.333 38.5925 57.4483 36.8494 58.2234 34.081C58.9985 31.3125 57.7166 27.2112 54.8647 27.3137Z" fill="#263238" stroke="#263238" stroke-linecap="round" stroke-linejoin="round"/>
<path d="M77.7199 26.3905C77.7199 26.3905 77.074 31.5172 75.7822 35.1059C74.4904 38.6946 71.1316 40.0275 66.342 39.5149C61.5523 39.0022 58.8494 35.9262 57.2992 32.3375C55.749 28.7488 55.6199 23.8271 55.6199 23.8271L77.7199 26.3905Z" fill="#CFCFCF" stroke="#263238" stroke-linecap="round" stroke-linejoin="round"/>
<path d="M56.2957 26.2884C56.2957 26.2884 57.8459 27.4163 61.3238 25.4681C64.8018 23.52 63.1324 22.5972 63.1324 22.5972L54.8647 22.9915L56.2957 26.2884Z" fill="#263238" stroke="#263238" stroke-linecap="round" stroke-linejoin="round"/>
<path d="M72.5726 27.6211C72.5726 27.6211 71.9266 29.1591 72.3142 29.6718C72.7017 30.1844 73.7352 30.9022 72.5726 31.7225C72.3619 31.8857 72.1058 32.0072 71.8249 32.0772C71.5441 32.1472 71.2464 32.1636 70.956 32.1252C70.6657 32.0868 70.3908 31.9946 70.1537 31.8561C69.9166 31.7176 69.724 31.5367 69.5914 31.3281" stroke="#263238" stroke-linecap="round" stroke-linejoin="round"/>
<path d="M65.3682 32.2036C65.3682 32.2036 67.3556 34.2504 71.1217 33.3078" stroke="#263238" stroke-linecap="round" stroke-linejoin="round"/>
<path d="M68.1804 28.2363C68.1804 28.8042 67.8922 29.2616 67.5345 29.2616C67.1767 29.2616 66.8885 28.8042 66.8885 28.2363C66.8885 27.6684 67.1767 27.2109 67.5345 27.2109C67.8922 27.2109 68.1804 27.6684 68.1804 28.2363Z" fill="#263238"/>
<path d="M75.2854 29.0488C75.2854 29.6167 74.9972 30.0741 74.6394 30.0741C74.2817 30.0741 73.9935 29.6167 73.9935 29.0488C73.9935 28.4809 74.2817 28.0234 74.6394 28.0234C74.9972 28.0234 75.2854 28.4888 75.2854 29.0488Z" fill="#263238"/>
<path d="M65.4675 25.9806C65.4675 25.9806 67.2761 24.3401 69.6014 25.9806" stroke="#263238" stroke-linecap="round" stroke-linejoin="round"/>
<path d="M73.7451 26.8007C74.1432 26.5676 74.6304 26.4505 75.1245 26.4692C75.6186 26.4879 76.0895 26.6412 76.4579 26.9032" stroke="#263238" stroke-linecap="round" stroke-linejoin="round"/>
<path d="M54.3679 24.2375L78.3958 26.2882C78.3958 26.2882 78.1374 16.6499 78.0082 15.0133C77.879 13.3767 68.3196 11.117 64.5932 11.3221C60.8668 11.5272 56.1963 13.2703 55.4212 14.0826C54.6462 14.895 54.3679 24.2375 54.3679 24.2375Z" fill="#535353" stroke="#263238" stroke-linecap="round" stroke-linejoin="round"/>
<path d="M64.6925 25.2626L86.0026 27.5184C86.0026 27.5184 80.3235 23.6221 75.8022 23.3145C71.2808 23.0069 64.6925 25.2626 64.6925 25.2626Z" fill="#535353" stroke="#263238" stroke-linecap="round" stroke-linejoin="round"/>
<path d="M57.2 27.0057C57.2 27.0057 56.7031 23.8271 54.4872 23.8271C52.2712 23.8271 53.3245 26.3905 53.5829 28.031C53.8413 29.6716 56.2957 30.0817 57.2 29.4665" fill="#CFCFCF"/>
<path d="M57.2 27.0057C57.2 27.0057 56.7031 23.8271 54.4872 23.8271C52.2712 23.8271 53.3245 26.3905 53.5829 28.031C53.8413 29.6716 56.2957 30.0817 57.2 29.4665" stroke="#263238" stroke-linecap="round" stroke-linejoin="round"/>
<path d="M59.4259 155.28L59.734 159.121C59.734 159.121 61.1003 159.934 65.095 159.977C69.0897 160.021 70.5604 158.597 70.5604 158.597L71.3603 154.456C71.3603 154.456 63.9522 157.24 59.4259 155.28Z" fill="#666666" stroke="#263238" stroke-linecap="round" stroke-linejoin="round"/>
</svg>
