<svg width="223" height="172" viewBox="0 0 223 172" fill="none" xmlns="http://www.w3.org/2000/svg">
<path d="M34.7857 156.407C77.84 176.938 147.648 176.938 190.707 156.407C233.767 135.876 233.762 102.591 190.707 82.0593C147.653 61.5281 77.84 61.5235 34.7806 82.0593C-8.27891 102.595 -8.27377 135.876 34.7857 156.407Z" fill="#FAFAFA"/>
<path d="M148.773 160.178C157.478 160.178 164.535 157.108 164.535 153.32C164.535 149.533 157.478 146.462 148.773 146.462C140.069 146.462 133.012 149.533 133.012 153.32C133.012 157.108 140.069 160.178 148.773 160.178Z" fill="#F0F0F0"/>
<path d="M25.5254 34.7303V58.3245C25.5254 59.0985 26.1215 59.4175 26.8615 59.0281L86.8745 27.3988C87.2628 27.1671 87.5861 26.8554 87.8182 26.4887C88.0503 26.1221 88.1847 25.7107 88.2106 25.288V1.67497C88.2106 0.901005 87.6093 0.582038 86.8745 0.971366L26.8615 32.6007C26.4696 32.8334 26.144 33.1479 25.9116 33.5182C25.6793 33.8885 25.5469 34.304 25.5254 34.7303Z" fill="#F0F0F0"/>
<path d="M29.7033 34.3598L47.6897 24.8846C48.5171 24.4484 49.18 24.8002 49.18 25.668V42.1651C49.1518 42.6356 49.0021 43.0934 48.7431 43.501C48.4841 43.9086 48.1231 44.2545 47.6897 44.5105L29.7033 53.9904C28.8811 54.4219 28.213 54.0701 28.213 53.2024V36.7145C28.2409 36.2427 28.3903 35.7835 28.6493 35.3743C28.9083 34.9652 29.2694 34.6176 29.7033 34.3598Z" fill="#FAFAFA"/>
<path d="M44.2672 33.1167L38.9175 43.2392L36.1938 41.8039C35.9323 41.6733 35.6255 41.6404 35.3379 41.7122C35.0504 41.7839 34.8046 41.9547 34.6522 42.1885L28.213 52.3251V53.2116C28.213 54.0794 28.8811 54.4312 29.7033 53.9997L47.6897 44.5198C48.1223 44.263 48.4826 43.9168 48.7415 43.5094C49.0004 43.102 49.1506 42.6447 49.18 42.1744V36.372L45.5827 32.9291C45.5024 32.8265 45.3924 32.7464 45.2651 32.6976C45.1377 32.6488 44.998 32.6332 44.8616 32.6527C44.7251 32.6721 44.5973 32.7258 44.4923 32.8078C44.3874 32.8897 44.3094 32.9967 44.2672 33.1167Z" fill="#0B1220"/>
<path d="M30.9161 40.3967C32.0275 39.7351 32.9523 38.8437 33.6157 37.7948C34.2791 36.7459 34.6624 35.5691 34.7344 34.3598C34.7344 33.3419 34.3746 32.6054 33.7837 32.2114L29.7033 34.3598C29.2708 34.6166 28.9105 34.9627 28.6516 35.3701C28.3927 35.7776 28.2424 36.2349 28.213 36.7051V40.6312C28.9171 41.0065 29.8626 40.9502 30.9161 40.3967Z" fill="#0B1220"/>
<path d="M55.8916 22.1032L82.9175 7.85755C83.5342 7.53389 84.0327 7.76373 84.0327 8.37352C84.0055 8.71525 83.8904 9.04629 83.6966 9.33972C83.5028 9.63316 83.2359 9.88069 82.9175 10.0622L55.8916 24.3031C55.275 24.6268 54.7765 24.3969 54.7765 23.7872C54.8044 23.4463 54.9199 23.1161 55.1137 22.8236C55.3074 22.531 55.5739 22.2842 55.8916 22.1032Z" fill="#FAFAFA"/>
<path d="M55.8916 26.9767L82.9175 12.7311C83.5342 12.4074 84.0327 12.6373 84.0327 13.2471C84.0055 13.5888 83.8904 13.9198 83.6966 14.2133C83.5028 14.5067 83.2359 14.7542 82.9175 14.9357L55.8916 29.1767C55.275 29.5003 54.7765 29.2705 54.7765 28.6654C54.8036 28.3237 54.9188 27.9926 55.1126 27.6992C55.3063 27.4058 55.5733 27.1582 55.8916 26.9767Z" fill="#FAFAFA"/>
<path d="M55.8916 31.8501L82.9175 17.6091C83.5342 17.2855 84.0327 17.5153 84.0327 18.1204C84.0055 18.4622 83.8904 18.7932 83.6966 19.0866C83.5028 19.3801 83.2359 19.6276 82.9175 19.8091L55.8916 34.0501C55.275 34.3784 54.7765 34.1486 54.7765 33.5388C54.8036 33.197 54.9188 32.866 55.1126 32.5726C55.3063 32.2791 55.5733 32.0316 55.8916 31.8501Z" fill="#FAFAFA"/>
<path d="M55.8916 36.7235L82.9175 22.4825C83.5342 22.1589 84.0327 22.3887 84.0327 22.9985C84.0047 23.3394 83.8892 23.6695 83.6955 23.9621C83.5017 24.2547 83.2352 24.5015 82.9175 24.6825L55.8916 38.9516C55.275 39.2752 54.7765 39.0454 54.7765 38.4356C54.7997 38.0898 54.9129 37.7541 55.1069 37.4563C55.3009 37.1585 55.5699 36.9073 55.8916 36.7235Z" fill="#FAFAFA"/>
<path d="M12.9862 108.966V74.3435C13.0109 73.9204 13.1448 73.5087 13.377 73.1419C13.6092 72.775 13.9331 72.4635 14.3223 72.2327L59.7098 48.3101C60.4446 47.9208 61.0459 48.235 61.0459 49.0137V83.6357C61.02 84.0585 60.8856 84.4699 60.6535 84.8365C60.4214 85.2032 60.0981 85.5149 59.7098 85.7466L14.3223 109.669C13.5823 110.058 12.9862 109.744 12.9862 108.966Z" fill="#F0F0F0"/>
<path d="M12.9862 107.234V108.965C12.9862 109.744 13.5823 110.058 14.3223 109.669L59.7098 85.7463C60.0981 85.5146 60.4214 85.2029 60.6535 84.8362C60.8856 84.4696 61.02 84.0583 61.0459 83.6355V81.8999L12.9862 107.234Z" fill="#0B1220"/>
<path d="M34.9451 75.8351L39.5702 75.6147C40.1355 75.5865 40.2897 75.8774 39.9145 76.2714L34.6008 81.7876C34.2257 82.177 33.9225 82.0691 33.9225 81.5531V76.8249C33.9245 76.5725 34.031 76.3302 34.2207 76.1466C34.4105 75.963 34.6693 75.8517 34.9451 75.8351Z" fill="#0B1220"/>
<path d="M33.7528 84.813C33.1986 84.8196 32.6524 84.6917 32.17 84.4425C31.0292 83.8374 30.4022 82.5662 30.4022 80.9057C30.4022 77.519 33.018 73.4005 36.235 71.6884C37.8229 70.8488 39.3183 70.7222 40.4695 71.3226C41.6206 71.923 42.2424 73.1988 42.2424 74.8547C42.2424 78.246 39.6215 82.3598 36.4097 84.0719C35.6102 84.5266 34.6942 84.7821 33.7528 84.813ZM38.8918 71.271C38.0135 71.3026 37.1595 71.5436 36.4148 71.9699C33.2955 73.6116 30.7619 77.6222 30.7619 80.9057C30.7619 82.463 31.3272 83.6216 32.355 84.161C33.3828 84.7004 34.7601 84.5738 36.235 83.7951C39.3543 82.1487 41.8878 78.1663 41.8878 74.8547C41.8878 73.2974 41.3225 72.1434 40.2947 71.5993C39.8648 71.3797 39.3794 71.2665 38.8867 71.271H38.8918Z" fill="#0B1220"/>
<path d="M15.4889 42.1696L12.6779 40.6968C11.3366 39.8759 9.47113 39.9087 7.4104 40.997C3.29922 43.1547 0 48.6287 0 53.2256V54.2716C0 58.8685 6.77317 63.8594 6.77317 63.8594L9.53794 65.2901C9.53794 65.2901 7.87805 63.5592 8.06819 63.2027C9.9028 59.8067 14.8105 50.2095 14.8105 46.4569V45.4109C14.8209 44.6539 14.7154 43.8992 14.497 43.1688L14.8105 43.3329L15.4889 42.1696ZM7.40526 52.7096C5.34967 53.7885 3.70006 52.9113 3.70006 50.7583C4.7998 50.5988 7.56971 46.2834 7.40526 44.8996C9.46085 43.8208 11.1053 44.6979 11.1105 46.851C11.0408 48.0246 10.669 49.1667 10.0253 50.1847C9.3815 51.2026 8.48388 52.0676 7.40526 52.7096Z" fill="#0B1220"/>
<g opacity="0.2">
<path d="M15.4889 42.1696L12.6779 40.6968C11.3366 39.8759 9.47113 39.9087 7.4104 40.997C3.29922 43.1547 0 48.6287 0 53.2256V54.2716C0 58.8685 6.77317 63.8594 6.77317 63.8594L9.53794 65.2901C9.53794 65.2901 7.87805 63.5592 8.06819 63.2027C9.9028 59.8067 14.8105 50.2095 14.8105 46.4569V45.4109C14.8209 44.6539 14.7154 43.8992 14.497 43.1688L14.8105 43.3329L15.4889 42.1696ZM7.40526 52.7096C5.34967 53.7885 3.70006 52.9113 3.70006 50.7583C4.7998 50.5988 7.56971 46.2834 7.40526 44.8996C9.46085 43.8208 11.1053 44.6979 11.1105 46.851C11.0408 48.0246 10.669 49.1667 10.0253 50.1847C9.3815 51.2026 8.48388 52.0676 7.40526 52.7096Z" fill="black"/>
</g>
<path d="M15.4889 42.1698C15.4582 42.1499 15.4255 42.1326 15.3913 42.1182C14.0706 41.4427 12.3079 41.5366 10.3654 42.5591C7.43617 44.1071 4.90265 47.3483 3.68472 50.7585C3.21373 52.0559 2.96414 53.4117 2.9447 54.7784V55.8385C2.9447 59.38 7.33852 63.489 9.35814 65.1917C9.40184 65.2275 9.44821 65.2604 9.49689 65.2902C9.61565 65.3566 9.74832 65.3996 9.88637 65.4163C10.0244 65.4331 10.1648 65.4232 10.2984 65.3874C10.432 65.3516 10.556 65.2907 10.6622 65.2085C10.7684 65.1263 10.8546 65.0247 10.9153 64.9103C12.6625 61.6268 17.7449 51.8326 17.7449 48.0238V46.9778C17.7758 44.6137 16.897 42.9438 15.4889 42.1698ZM6.72699 52.9959C6.68432 52.7729 6.66368 52.5469 6.66532 52.3205C6.73319 51.1464 7.10365 50.0034 7.74657 48.9846C8.3895 47.9658 9.28675 47.0998 10.3654 46.4571C10.5809 46.3438 10.806 46.2465 11.0386 46.1663C12.7653 45.594 14.0706 46.4993 14.0706 48.4084C14.0014 49.5815 13.6297 50.7231 12.9859 51.7404C12.342 52.7576 11.4442 53.6217 10.3654 54.2624C8.55132 55.2287 7.04046 54.6471 6.72699 52.9959Z" fill="#0B1220"/>
<path d="M14.0705 48.413C14.0013 49.5861 13.6297 50.7277 12.9858 51.7449C12.342 52.7621 11.4441 53.6263 10.3653 54.267C8.55127 55.2051 7.04041 54.6469 6.72693 52.9958C6.96241 52.9201 7.18954 52.8243 7.40527 52.7097C8.48323 52.0674 9.38006 51.2022 10.023 50.1842C10.6658 49.1663 11.0367 48.0243 11.1053 46.851C11.1077 46.6228 11.0853 46.395 11.0385 46.1708C12.7652 45.5986 14.0705 46.5039 14.0705 48.413Z" fill="#0B1220"/>
<g opacity="0.2">
<path d="M14.0705 48.413C14.0013 49.5861 13.6297 50.7277 12.9858 51.7449C12.342 52.7621 11.4441 53.6263 10.3653 54.267C8.55127 55.2051 7.04041 54.6469 6.72693 52.9958C6.96241 52.9201 7.18954 52.8243 7.40527 52.7097C8.48323 52.0674 9.38006 51.2022 10.023 50.1842C10.6658 49.1663 11.0367 48.0243 11.1053 46.851C11.1077 46.6228 11.0853 46.395 11.0385 46.1708C12.7652 45.5986 14.0705 46.5039 14.0705 48.413Z" fill="black"/>
</g>
<path d="M68.0658 106.653C68.0658 106.653 69.9209 95.8642 65.7995 86.586C61.678 77.3078 56.1228 76.7355 53.245 78.0536C50.3671 79.3717 52.2172 84.5174 54.7867 87.9744C58.2092 92.5104 63.8621 102.276 63.6771 111.048L68.0658 106.653Z" fill="#0B1220"/>
<path opacity="0.2" d="M68.0658 106.653C68.0658 106.653 69.9209 95.8642 65.7995 86.586C61.678 77.3078 56.1228 76.7355 53.245 78.0536C50.3671 79.3717 52.2172 84.5174 54.7867 87.9744C58.2092 92.5104 63.8621 102.276 63.6771 111.048L68.0658 106.653Z" fill="black"/>
<path d="M66.2157 107.338C66.1696 107.337 66.1242 107.327 66.0822 107.309C66.0402 107.292 66.0025 107.267 65.9714 107.236C65.9402 107.205 65.9162 107.168 65.9008 107.129C65.8854 107.089 65.8789 107.047 65.8817 107.005C66.56 92.2337 58.4764 81.2059 54.987 79.0576C54.9489 79.0341 54.9162 79.0041 54.8908 78.9692C54.8654 78.9342 54.8477 78.8951 54.8389 78.8539C54.8301 78.8127 54.8302 78.7704 54.8393 78.7293C54.8484 78.6882 54.8663 78.6491 54.892 78.6143C54.9176 78.5795 54.9505 78.5496 54.9888 78.5264C55.0271 78.5032 55.07 78.4872 55.1151 78.4791C55.1602 78.471 55.2066 78.4712 55.2516 78.4795C55.2967 78.4878 55.3395 78.5041 55.3776 78.5275C59.4888 81.0323 67.2589 92.3088 66.5754 107.033C66.5741 107.075 66.5637 107.116 66.5448 107.154C66.526 107.192 66.499 107.226 66.4655 107.254C66.4321 107.283 66.3927 107.305 66.3498 107.319C66.3069 107.333 66.2613 107.34 66.2157 107.338Z" fill="white"/>
<path d="M67.336 119.463C66.632 117.85 64.8128 116.048 60.1415 114.125C55.4701 112.202 51.9551 109.636 51.3076 107.779C51.1127 107.266 51.0872 106.712 51.2343 106.185C51.3814 105.659 51.6946 105.184 52.1349 104.819C52.1349 104.819 47.7308 104.35 47.1758 101.887C46.4821 98.7819 50.3312 98.5802 50.3312 98.5802C50.3312 98.5802 45.2795 92.0883 43.9383 89.1988C42.597 86.3093 44.1438 86.1358 47.4019 87.2381C50.66 88.3404 56.8679 93.8895 57.8289 95.5829C57.8289 95.5829 59.5094 93.7066 61.3183 94.9402C63.1272 96.1739 63.2146 99.8655 62.1457 101.198C62.8665 101.075 63.6108 101.146 64.2885 101.401C64.9661 101.657 65.5481 102.086 65.9639 102.638C67.8037 104.838 68.4101 110.34 68.4101 110.34L67.336 119.463Z" fill="#0B1220"/>
<path d="M67.665 117.963C67.5869 117.962 67.5114 117.937 67.45 117.893C67.3887 117.849 67.345 117.788 67.3258 117.719C64.8283 108.22 52.9727 93.0596 45.6085 88.2376C45.5711 88.2133 45.5392 88.1824 45.5148 88.1469C45.4904 88.1113 45.4739 88.0717 45.4663 88.0303C45.4587 87.9889 45.46 87.9466 45.4703 87.9057C45.4806 87.8648 45.4996 87.8262 45.5263 87.792C45.5529 87.7578 45.5867 87.7287 45.6257 87.7064C45.6646 87.6842 45.708 87.6691 45.7534 87.6622C45.7987 87.6552 45.8451 87.6564 45.8899 87.6658C45.9347 87.6752 45.977 87.6926 46.0145 87.7169C53.4711 92.5999 65.4758 107.953 68.0093 117.569C68.0294 117.651 68.0133 117.738 67.9643 117.81C67.9153 117.882 67.8373 117.933 67.7472 117.953L67.665 117.963Z" fill="white"/>
<path d="M160.685 22.3136C160.624 22.3129 160.564 22.2984 160.511 22.2714L159.067 21.5068C159.027 21.4859 158.992 21.458 158.964 21.4247C158.936 21.3915 158.915 21.3535 158.903 21.313C158.892 21.2725 158.888 21.2302 158.894 21.1886C158.9 21.147 158.915 21.1069 158.938 21.0706C158.961 21.0342 158.992 21.0024 159.028 20.9768C159.065 20.9512 159.106 20.9325 159.151 20.9216C159.195 20.9107 159.241 20.9079 159.287 20.9133C159.332 20.9188 159.376 20.9324 159.416 20.9533L160.86 21.7179C160.9 21.7388 160.935 21.7667 160.963 21.7999C160.991 21.8332 161.012 21.8711 161.024 21.9117C161.036 21.9522 161.039 21.9945 161.033 22.0361C161.027 22.0777 161.012 22.1178 160.989 22.1541C160.958 22.2027 160.914 22.243 160.861 22.271C160.807 22.299 160.747 22.3137 160.685 22.3136Z" fill="white"/>
<path d="M67.3359 50.125V119.913C67.3359 120.692 67.9321 121.006 68.6669 120.617L157.849 73.6207C158.237 73.3891 158.56 73.0774 158.792 72.7107C159.025 72.344 159.159 71.9327 159.185 71.5099V1.72171C159.185 0.943056 158.584 0.628779 157.849 1.01811L68.6669 48.0142C68.279 48.2458 67.9563 48.5577 67.725 48.9244C67.4938 49.2912 67.3605 49.7025 67.3359 50.125Z" fill="#455A64"/>
<path d="M77.7732 63.0154C77.7732 65.4498 79.762 66.3692 82.2235 65.0746L152.92 27.8163V19.0166L82.2235 56.2701C79.762 57.5695 77.7732 60.5856 77.7732 63.0154Z" fill="#F5F5F5"/>
<path d="M158.933 15.8597C161.39 14.565 163.384 15.4844 163.384 17.9142C163.384 20.344 161.39 23.3648 158.933 24.6594L152.946 27.8163V19.0165L158.933 15.8597Z" fill="#0B1220"/>
<path d="M156.775 23.2751C156.519 23.2784 156.267 23.2184 156.045 23.1015C155.772 22.9347 155.553 22.7037 155.412 22.4329C155.271 22.1621 155.213 21.8616 155.243 21.563C155.28 20.8288 155.51 20.1134 155.912 19.4768C156.314 18.8402 156.878 18.3009 157.556 17.9042C157.815 17.7116 158.132 17.5954 158.464 17.5712C158.797 17.5469 159.13 17.6158 159.419 17.7685C159.708 17.9213 159.94 18.1507 160.082 18.4264C160.225 18.702 160.272 19.0107 160.218 19.3115C160.18 20.0454 159.95 20.7603 159.548 21.3968C159.145 22.0332 158.582 22.5726 157.905 22.9702C157.564 23.1605 157.174 23.2656 156.775 23.2751ZM158.681 18.2326C158.406 18.245 158.138 18.3226 157.905 18.4578C157.338 18.8019 156.865 19.2614 156.525 19.8001C156.184 20.3388 155.985 20.9422 155.942 21.563C155.889 21.7498 155.905 21.9473 155.987 22.1253C156.068 22.3032 156.212 22.4518 156.395 22.5481C156.578 22.6445 156.791 22.6834 157.001 22.6588C157.21 22.6342 157.405 22.5475 157.556 22.412C158.124 22.0684 158.597 21.609 158.938 21.0702C159.278 20.5314 159.477 19.9277 159.519 19.3068C159.545 19.1208 159.517 18.9317 159.438 18.7587C159.359 18.5858 159.231 18.435 159.067 18.3217C158.95 18.2605 158.816 18.2297 158.681 18.2326Z" fill="white"/>
<path d="M159.961 35.1197L91.6125 71.1161C91.2227 71.3464 90.8984 71.6578 90.6661 72.0247C90.4338 72.3916 90.3002 72.8037 90.2764 73.2269V92.4259C90.2764 93.2046 90.8725 93.5189 91.6125 93.1295L159.961 57.119C160.35 56.8882 160.674 56.5767 160.906 56.2099C161.138 55.843 161.272 55.4313 161.297 55.0082V35.8233C161.271 35.0446 160.675 34.7303 159.961 35.1197Z" fill="#0B1220"/>
<path opacity="0.2" d="M159.961 35.1197L91.6125 71.1161C91.2227 71.3464 90.8984 71.6578 90.6661 72.0247C90.4338 72.3916 90.3002 72.8037 90.2764 73.2269V92.4259C90.2764 93.2046 90.8725 93.5189 91.6125 93.1295L159.961 57.119C160.35 56.8882 160.674 56.5767 160.906 56.2099C161.138 55.843 161.272 55.4313 161.297 55.0082V35.8233C161.271 35.0446 160.675 34.7303 159.961 35.1197Z" fill="white"/>
<path d="M116.46 61.2234L128.844 54.694C129.461 54.3703 129.96 54.6002 129.96 55.21C129.932 55.5509 129.816 55.881 129.622 56.1735C129.429 56.4661 129.162 56.7129 128.844 56.8939L116.46 63.4234C115.843 63.747 115.344 63.5172 115.344 62.9074C115.372 62.5665 115.488 62.2364 115.682 61.9438C115.875 61.6512 116.142 61.4045 116.46 61.2234Z" fill="white"/>
<path d="M115.344 67.3069C115.344 67.9166 115.858 68.1465 116.46 67.8228L153.897 48.0938C154.214 47.9115 154.48 47.6636 154.673 47.3703C154.865 47.0769 154.98 46.7463 155.007 46.4051C155.007 45.8 154.493 45.5702 153.897 45.8938L116.46 65.6229C116.142 65.8039 115.875 66.0507 115.682 66.3433C115.488 66.6358 115.372 66.9659 115.344 67.3069Z" fill="white"/>
<path d="M115.344 71.7068C115.344 72.3166 115.858 72.5464 116.46 72.2227L153.897 52.4937C154.214 52.3114 154.48 52.0635 154.673 51.7702C154.865 51.4768 154.98 51.1462 155.007 50.805C155.007 50.1999 154.493 49.9701 153.897 50.2937L116.46 70.0228C116.142 70.2038 115.875 70.4506 115.682 70.7432C115.488 71.0357 115.372 71.3659 115.344 71.7068Z" fill="white"/>
<path d="M115.344 76.1067C115.344 76.7165 115.858 76.9463 116.46 76.6226L153.897 56.8936C154.214 56.7113 154.48 56.4634 154.673 56.1701C154.865 55.8767 154.98 55.5461 155.007 55.2049C155.007 54.5998 154.493 54.37 153.897 54.6936L116.46 74.4227C116.142 74.6037 115.875 74.8505 115.682 75.1431C115.488 75.4357 115.372 75.7658 115.344 76.1067Z" fill="white"/>
<path d="M93.7196 72.2137L109.835 63.7188C110.575 63.3342 111.172 63.6485 111.172 64.4224V79.2122C111.146 79.6352 111.012 80.0468 110.78 80.4135C110.548 80.7803 110.224 81.0919 109.835 81.323L93.7196 89.8132C92.9847 90.2025 92.3834 89.8882 92.3834 89.1143V74.3245C92.4081 73.9014 92.542 73.4897 92.7742 73.1229C93.0064 72.756 93.3304 72.4445 93.7196 72.2137Z" fill="white"/>
<path d="M106.773 71.102L101.978 80.1738L99.5369 78.8885C99.301 78.7644 99.0208 78.7307 98.7578 78.7949C98.4948 78.8591 98.2704 79.0159 98.1339 79.231L92.3834 88.3168V89.1096C92.3834 89.8882 92.9847 90.2025 93.7196 89.8132L109.835 81.323C110.225 81.0922 110.549 80.7807 110.781 80.4138C111.013 80.047 111.147 79.6353 111.172 79.2122V74.0196L107.929 70.9331C107.855 70.8469 107.758 70.7803 107.647 70.7402C107.535 70.7002 107.414 70.6882 107.296 70.7054C107.178 70.7227 107.067 70.7686 106.975 70.8383C106.883 70.9081 106.813 70.9992 106.773 71.102Z" fill="#0B1220"/>
<path d="M94.8039 77.6266C95.8002 77.0333 96.6294 76.234 97.224 75.2935C97.8187 74.353 98.1621 73.2978 98.2264 72.2135C98.2606 71.8536 98.2012 71.4913 98.053 71.1563C97.9047 70.8213 97.6719 70.523 97.3734 70.2856L93.7196 72.2135C93.3304 72.4443 93.0064 72.7559 92.7742 73.1227C92.542 73.4895 92.4081 73.9013 92.3834 74.3243V77.8424C93.0052 78.1707 93.8583 78.1238 94.8039 77.6266Z" fill="#0B1220"/>
<path d="M159.961 63.7186L91.6125 99.715C91.2233 99.9459 90.8994 100.257 90.6672 100.624C90.435 100.991 90.3011 101.403 90.2764 101.826V121.039C90.2764 121.813 90.8725 122.127 91.6125 121.743L159.961 85.7227C160.35 85.4919 160.674 85.1803 160.906 84.8135C161.138 84.4467 161.272 84.0349 161.297 83.6119V64.4222C161.271 63.6483 160.675 63.3434 159.961 63.7186Z" fill="#0B1220"/>
<path opacity="0.2" d="M159.961 63.7186L91.6125 99.715C91.2233 99.9459 90.8994 100.257 90.6672 100.624C90.435 100.991 90.3011 101.403 90.2764 101.826V121.039C90.2764 121.813 90.8725 122.127 91.6125 121.743L159.961 85.7227C160.35 85.4919 160.674 85.1803 160.906 84.8135C161.138 84.4467 161.272 84.0349 161.297 83.6119V64.4222C161.271 63.6483 160.675 63.3434 159.961 63.7186Z" fill="white"/>
<path d="M116.46 89.8224L128.844 83.2976C129.461 82.974 129.96 83.2038 129.96 83.8089C129.932 84.1506 129.817 84.4817 129.624 84.7751C129.43 85.0685 129.163 85.3161 128.844 85.4976L116.46 92.0223C115.843 92.346 115.344 92.1161 115.344 91.511C115.372 91.1693 115.487 90.8383 115.68 90.5448C115.874 90.2514 116.141 90.0039 116.46 89.8224Z" fill="white"/>
<path d="M115.344 95.911C115.344 96.5161 115.858 96.746 116.46 96.4223L153.897 76.6932C154.213 76.5114 154.479 76.2643 154.672 75.9718C154.864 75.6793 154.979 75.3497 155.007 75.0093C155.007 74.3995 154.493 74.1696 153.897 74.4933L116.46 94.2224C116.141 94.4038 115.874 94.6514 115.68 94.9448C115.487 95.2383 115.372 95.5693 115.344 95.911Z" fill="white"/>
<path d="M115.344 100.31C115.344 100.916 115.858 101.145 116.46 100.822L153.897 81.0926C154.213 80.9108 154.479 80.6637 154.672 80.3712C154.864 80.0788 154.979 79.7491 155.007 79.4087C155.007 78.7989 154.493 78.569 153.897 78.8927L116.46 98.6218C116.141 98.8033 115.874 99.0508 115.68 99.3442C115.487 99.6377 115.372 99.9687 115.344 100.31Z" fill="white"/>
<path d="M115.344 104.71C115.344 105.315 115.858 105.545 116.46 105.222L153.897 85.4925C154.213 85.3107 154.479 85.0636 154.672 84.7711C154.864 84.4787 154.979 84.149 155.007 83.8086C155.007 83.1988 154.493 82.9689 153.897 83.2926L116.46 103.022C116.141 103.203 115.874 103.451 115.68 103.744C115.487 104.038 115.372 104.369 115.344 104.71Z" fill="white"/>
<path d="M93.7196 100.817L109.835 92.3223C110.575 91.933 111.172 92.2473 111.172 93.0259V107.811C111.148 108.234 111.014 108.646 110.782 109.013C110.55 109.38 110.225 109.692 109.835 109.922L93.7196 118.417C92.9847 118.806 92.3834 118.492 92.3834 117.713V102.928C92.4081 102.505 92.542 102.093 92.7742 101.726C93.0064 101.36 93.3304 101.048 93.7196 100.817Z" fill="white"/>
<path d="M106.773 99.7057L101.978 108.777L99.5369 107.488C99.4198 107.426 99.2906 107.387 99.1567 107.371C99.0229 107.355 98.8869 107.364 98.7566 107.396C98.6264 107.428 98.5043 107.483 98.3975 107.559C98.2906 107.634 98.2011 107.728 98.1339 107.835L92.3834 116.921V117.713C92.3834 118.492 92.9847 118.806 93.7196 118.417L109.835 109.922C110.224 109.692 110.548 109.382 110.781 109.015C111.013 108.649 111.147 108.238 111.172 107.816V102.619L107.929 99.5368C107.856 99.4492 107.759 99.3812 107.647 99.3401C107.536 99.2991 107.414 99.2866 107.295 99.304C107.176 99.3213 107.065 99.3679 106.973 99.4387C106.881 99.5094 106.811 99.6017 106.773 99.7057Z" fill="#0B1220"/>
<path d="M94.8039 106.226C95.8001 105.634 96.6293 104.835 97.224 103.895C97.8187 102.956 98.1621 101.901 98.2264 100.818C98.2606 100.458 98.2012 100.095 98.053 99.7603C97.9047 99.4253 97.6719 99.127 97.3734 98.8896L93.7196 100.818C93.3304 101.048 93.0064 101.36 92.7742 101.727C92.542 102.094 92.4081 102.505 92.3834 102.928V106.446C93.0052 106.77 93.8583 106.723 94.8039 106.226Z" fill="#0B1220"/>
<path d="M159.185 4.70969V1.72171C159.185 0.943056 158.584 0.628779 157.849 1.01811L68.6721 48.0142C68.2829 48.245 67.9589 48.5566 67.7267 48.9234C67.4945 49.2902 67.3606 49.702 67.3359 50.125V53.1177L159.185 4.70969Z" fill="#0B1220"/>
<path d="M148.244 7.22397C147.957 7.39627 147.717 7.62784 147.546 7.89998C147.375 8.17212 147.276 8.47721 147.257 8.79066C147.257 9.36762 147.699 9.60215 148.244 9.31133C148.533 9.1414 148.774 8.91114 148.946 8.63955C149.119 8.36796 149.218 8.06282 149.236 7.74933C149.236 7.17237 148.794 6.93784 148.244 7.22397Z" fill="#F5F5F5"/>
<path d="M152.175 5.17905C151.887 5.35083 151.647 5.58216 151.474 5.85434C151.302 6.12651 151.203 6.43187 151.183 6.74574C151.183 7.32269 151.631 7.55254 152.175 7.26641C152.465 7.09546 152.705 6.86432 152.878 6.59197C153.05 6.31963 153.149 6.01384 153.167 5.69971C153.167 5.0993 152.725 4.86946 152.175 5.17905Z" fill="#F5F5F5"/>
<path d="M156.107 3.08685C155.817 3.25677 155.577 3.48703 155.404 3.75863C155.232 4.03022 155.133 4.33536 155.115 4.64885C155.115 5.22581 155.557 5.46034 156.107 5.17421C156.394 5.0019 156.633 4.77035 156.804 4.4982C156.976 4.22606 157.075 3.92096 157.093 3.60752C157.093 3.03056 156.651 2.79602 156.107 3.08685Z" fill="#F5F5F5"/>
<path d="M160.608 150.225C160.764 150.585 160.871 150.962 160.927 151.346C161.072 151.743 161.105 152.167 161.025 152.579C160.678 153.106 160.128 153.494 159.483 153.668C159.024 153.764 158.548 153.772 158.085 153.691C157.622 153.611 157.183 153.443 156.795 153.199C155.855 152.687 155.151 152.063 153.815 151.721C152.862 151.534 151.964 151.161 151.184 150.628C150.444 150.089 149.457 148.588 150.87 148.24C152.283 147.893 155.362 149.118 158.162 149.23L160.608 150.225Z" fill="#263238"/>
<path d="M160.475 148.536C160.475 148.536 160.639 150.328 160.639 150.548C160.639 151.154 158.193 151.956 157.741 150.548L157.35 148.644L160.475 148.536Z" fill="#F28F8F"/>
<path d="M157.474 109.223C158.315 110.352 159.085 111.523 159.781 112.732C159.781 112.732 160.023 115.34 160.023 117.075C160.023 120.265 159.483 122.728 158.995 129.013C159.79 130.25 160.245 131.643 160.321 133.075C160.526 135.923 160.531 135.89 160.552 149.024C160.084 149.254 159.57 149.397 159.04 149.444C158.511 149.491 157.976 149.44 157.469 149.296L152.843 130.904L152.33 123.685L150.88 114.711L157.474 109.223Z" fill="#37474F"/>
<path d="M146.528 153.512C146.692 153.667 146.636 153.981 146.713 154.497C146.798 154.894 146.821 155.3 146.779 155.703C146.51 156.261 146.023 156.707 145.412 156.955C144.969 157.101 144.497 157.162 144.027 157.134C143.556 157.105 143.097 156.989 142.679 156.791C141.682 156.388 140.895 155.853 139.523 155.661C138.552 155.584 137.611 155.317 136.764 154.877C135.957 154.408 134.77 153.048 136.126 152.532C137.483 152.016 140.885 152.94 143.675 152.734L146.528 153.512Z" fill="#263238"/>
<path d="M147.17 151.261C147.17 151.261 146.656 153.306 146.517 153.761C146.209 154.854 143.552 154.91 143.552 153.648L143.732 150.74L147.17 151.261Z" fill="#F28F8F"/>
<path d="M151.476 109.781C152.807 112.169 154.092 114.275 154.133 116.817C154.231 122.198 151.785 128.122 150.885 132.01C151.153 133.418 151.229 134.85 151.112 136.274C150.932 137.902 146.867 152.692 146.867 152.692C146.867 152.692 144.606 153.123 143.645 152.19L144.786 123.713L145.094 115.443L151.476 109.781Z" fill="#37474F"/>
<path d="M149.647 95.1978L150.485 99.4335L154.678 99.1521L153.799 94.3535L149.647 95.1978Z" fill="#FFA8A7"/>
<path d="M159.103 98.8425C158.686 97.6933 157.088 96.4409 155.505 96.713C153.128 97.0818 150.785 97.6149 148.496 98.3078C147.031 98.7769 145.695 99.9448 145.572 104.345L145.114 115.415C145.748 115.929 146.507 116.296 147.329 116.484C149.554 117.042 151.024 117.375 154.406 116.7C158.81 115.823 159.858 113.388 159.858 113.388C159.858 113.388 159.689 107.53 159.555 104.345C159.447 101.638 159.385 99.6353 159.103 98.8425Z" fill="#455A64"/>
<path d="M147.859 89.7897L126.506 84.5032C124.574 84.1983 123.767 88.5044 125.699 88.8046L147.627 90.8263L147.859 89.7897Z" fill="#263238"/>
<path d="M141.718 98.7208L137.355 98.8427C137.355 98.8427 138.012 92.9184 138.418 92.1397C138.824 91.3611 139.796 91.2016 140.762 90.953C141.728 90.7044 141.723 90.2822 141.723 90.2822L140.854 90.2025C140.094 90.1321 139.79 89.2643 140.119 88.678C140.279 88.4059 140.536 87.9744 140.998 88.0917L142.149 88.3778C142.167 87.9142 142.04 87.4556 141.784 87.055C141.399 86.6657 141.142 86.7876 140.371 86.5437C139.801 86.3608 138.634 86.0371 137.694 86.3889C136.753 86.7407 136.039 88.3543 135.797 89.4942C135.553 90.8122 135.157 92.1031 134.615 93.3452C133.778 95.456 132.56 99.7902 132.431 101.526C132.375 102.328 132.457 102.806 133.433 103.017C134.41 103.229 141.594 103.243 141.594 103.243L141.718 98.7208Z" fill="#FFA8A7"/>
<path d="M146.543 90.1836C146.543 90.1836 145.515 91.5533 145.659 91.7034C145.891 91.8447 146.149 91.9479 146.42 92.0083L146.543 90.1836Z" fill="#FFA8A7"/>
<path d="M149.642 85.8586C148.665 86.3277 146.98 87.1392 146.512 90.4039C146.034 93.753 146.666 94.8319 147.16 95.2775C147.499 95.5777 149.318 95.5965 150.243 95.3432C151.384 95.0336 153.959 94.1377 155.135 92.4162C156.518 90.3898 156.826 87.6786 155.269 86.5997C154.477 86.0511 153.545 85.6953 152.56 85.5657C151.576 85.436 150.572 85.5368 149.642 85.8586Z" fill="#FFA8A7"/>
<path d="M152.515 126.279L154.74 120.537C156.465 119.979 158.01 119.038 159.236 117.798C159.236 117.798 158.722 119.435 155.207 121.114L152.766 126.546V129.567L152.515 126.279Z" fill="#263238"/>
<path d="M146.312 86.961C146.63 87.7631 147.17 89.7332 149.421 90.5541C149.421 90.5541 149.745 89.3017 150.896 89.433C152.047 89.5643 152.247 90.9106 151.538 91.7455C150.829 92.5804 150.14 92.2802 150.14 92.2802C150.14 92.2802 149.986 94.0768 151.302 94.893C151.791 95.1566 152.342 95.3128 152.909 95.3495C153.476 95.3861 154.045 95.3021 154.57 95.104C155.326 94.7898 156.4 93.1339 157.027 91.7736C158.352 88.9029 158.542 86.6139 156.513 85.8728C156.261 84.5687 155.618 84.0762 154.323 83.8323C151.538 83.3116 149.431 84.9815 147.093 84.686C145.895 84.5312 145.942 86.0416 146.312 86.961Z" fill="#263238"/>
<path d="M156.58 86.3277L157.895 85.5818C157.78 85.4356 157.609 85.3346 157.416 85.2993C157.223 85.2641 157.022 85.2974 156.855 85.3923C156.687 85.4872 156.566 85.6366 156.515 85.8103C156.463 85.9841 156.487 86.169 156.58 86.3277Z" fill="#263238"/>
<path d="M140.741 98.6407C140.741 98.6407 146.882 98.317 148.45 98.3076C150.017 98.2983 151.682 100.742 150.706 102.407C150.058 103.5 148.039 103.875 145.495 103.988C142.951 104.101 140.387 104.101 140.387 104.101C140.387 104.101 138.1 101.722 140.741 98.6407Z" fill="#455A64"/>
<path d="M145.572 103.988C145.572 103.988 149.462 103.941 150.736 102.407C150.736 102.407 150.438 103.345 148.928 103.922C147.845 104.302 146.704 104.527 145.546 104.588L145.572 103.988Z" fill="#37474F"/>
<path d="M126.506 84.5032C124.574 84.1983 123.767 88.5044 125.699 88.8046L128.783 89.0861C127.529 88.9688 128.397 84.9676 129.353 85.2022L126.506 84.5032Z" fill="#455A64"/>
<path d="M204.269 83.3545C204.269 84.2277 203.982 85.0807 203.443 85.8023C202.904 86.5239 202.14 87.0805 201.249 87.3995C200.359 87.7186 199.383 87.7852 198.451 87.5908C197.518 87.3964 196.671 86.9499 196.021 86.3097L195.708 85.9626C194.976 85.0722 194.647 83.9595 194.788 82.8541C194.929 81.7487 195.53 80.7349 196.466 80.0219C197.402 79.3088 198.602 78.9509 199.819 79.0221C201.036 79.0932 202.176 79.5879 203.005 80.4041L203.329 80.7606C203.939 81.5107 204.269 82.4202 204.269 83.3545Z" fill="#455A64"/>
<path d="M204.269 83.3542C204.269 84.2274 203.981 85.0804 203.443 85.802C202.904 86.5235 202.14 87.0801 201.249 87.3992C200.359 87.7182 199.383 87.7849 198.451 87.5905C197.518 87.3961 196.671 86.9496 196.021 86.3093L195.707 85.9622L175.892 64.1176L184.242 59.7178L203.005 80.3944L203.329 80.7509C203.941 81.5036 204.271 82.4166 204.269 83.3542Z" fill="#455A64"/>
<path d="M187.876 77.3267C188.708 78.1234 189.841 78.602 191.045 78.6657C192.249 78.7294 193.434 78.3735 194.362 77.6699C195.289 76.9663 195.889 75.9675 196.041 74.8755C196.193 73.7834 195.884 72.6795 195.178 71.787L192.727 69.0898C193.46 69.9806 193.789 71.0943 193.648 72.2007C193.507 73.3071 192.905 74.3216 191.968 75.0347C191.03 75.7477 189.828 76.1047 188.611 76.0319C187.393 75.9592 186.252 75.4622 185.425 74.6436L187.876 77.3267Z" fill="#0B1220"/>
<path d="M183.924 25.3773C185.42 25.5293 186.866 25.9586 188.174 26.6391L182.146 23.44C178.101 20.9024 172.279 21.0525 165.809 24.4579C153.594 30.8983 143.686 46.5605 143.686 59.4412C143.686 65.7689 146.044 70.2907 149.935 72.4391L150.017 72.486L156.451 75.868C155.31 75.1904 154.315 74.327 153.517 73.3209C155.102 73.4793 156.705 73.3953 158.26 73.0723C158.825 72.9598 159.396 72.8237 159.976 72.6549C159.9 72.634 159.826 72.6073 159.755 72.5751C159.446 72.4429 159.15 72.286 158.871 72.106C158.366 71.7843 157.915 71.3953 157.535 70.9521C157.016 70.3453 156.594 69.674 156.281 68.9586C155.863 69.0138 155.44 69.0421 155.017 69.043C154.017 69.0613 153.024 68.8804 152.108 68.513C151.894 68.4235 151.687 68.3216 151.487 68.2081C151.307 68.1049 151.127 67.9829 150.973 67.861C150.601 66.2732 150.42 64.6531 150.433 63.0295C150.433 50.1536 160.341 34.4866 172.567 28.0463C174.128 27.2152 175.781 26.539 177.5 26.0293C177.963 26.202 178.399 26.4308 178.795 26.7095C179.215 27.0033 179.593 27.3437 179.921 27.7227C180.442 28.331 180.866 29.0038 181.18 29.7209C181.6 29.6671 182.024 29.6405 182.449 29.6411C183.611 29.6127 184.76 29.8668 185.779 30.3776C186.037 30.5058 186.283 30.6533 186.514 30.8185C186.421 30.4433 186.324 30.0727 186.206 29.7209C185.741 28.1582 184.968 26.6861 183.924 25.3773Z" fill="#263238"/>
<path d="M188.174 26.6392L187.824 26.4656C186.61 25.8849 185.287 25.5158 183.924 25.3774C182.461 25.2285 180.982 25.2902 179.54 25.5603C178.846 25.6805 178.16 25.8371 177.485 26.0294C175.766 26.5391 174.112 27.2153 172.551 28.0464C160.326 34.4867 150.418 50.1536 150.418 63.0296C150.405 64.6532 150.586 66.2732 150.957 67.861C151.024 68.1472 151.101 68.4192 151.178 68.6913C151.636 70.3515 152.431 71.9187 153.522 73.3116C154.009 73.9246 154.569 74.4863 155.192 74.9862C155.589 75.3051 156.012 75.5967 156.456 75.8587C160.49 78.2369 166.22 78.0305 172.541 74.6907C184.767 68.2504 194.675 52.5881 194.675 39.7075C194.669 33.2671 192.187 28.7406 188.174 26.6392ZM185.759 30.3917C186.016 30.52 186.262 30.6675 186.493 30.8327C186.881 31.1199 187.234 31.4438 187.547 31.7989C189.089 33.5626 189.906 36.3067 189.906 39.7215C189.906 50.9792 180.861 65.2952 170.157 70.9381C167.459 72.3453 164.863 73.1146 162.659 73.1146C161.739 73.1245 160.827 72.9649 159.976 72.6455C159.9 72.6247 159.826 72.598 159.755 72.5658C159.446 72.4336 159.15 72.2766 158.871 72.0967C158.525 71.8746 158.204 71.6199 157.916 71.3368C157.787 71.2149 157.664 71.0788 157.54 70.9428C157.021 70.3359 156.599 69.6647 156.286 68.9493C155.504 67.0563 155.13 65.0429 155.187 63.0202C155.187 62.8701 155.187 62.7247 155.187 62.5512C155.413 51.3404 164.36 37.348 174.926 31.7849C175.167 31.6582 175.414 31.5316 175.66 31.4143C177.364 30.5456 179.225 29.9625 181.154 29.6928C181.575 29.6391 181.999 29.6124 182.423 29.6131C183.338 29.6059 184.244 29.7653 185.09 30.0821C185.322 30.1662 185.546 30.2682 185.759 30.387V30.3917Z" fill="#455A64"/>
<path d="M189.906 39.7164C189.906 50.9741 180.861 65.2901 170.157 70.933C169.507 71.2779 168.838 71.5911 168.152 71.8712C166.44 72.6252 164.574 73.0438 162.674 73.1001C161.755 73.11 160.842 72.9504 159.992 72.6311C159.916 72.6102 159.842 72.5835 159.771 72.5513C159.461 72.4191 159.166 72.2622 158.887 72.0822C158.381 71.7605 157.931 71.3715 157.551 70.9283C157.417 70.7642 157.278 70.6047 157.155 70.4217C157.396 70.4217 157.669 70.4546 157.905 70.4546C160.11 70.4546 162.705 69.6994 165.403 68.2781C176.092 62.668 185.142 48.3708 185.142 37.0756C185.142 33.975 184.469 31.4467 183.189 29.6689C184.092 29.7231 184.97 29.9619 185.758 30.3679C186.016 30.4961 186.262 30.6436 186.493 30.8088C186.881 31.0961 187.234 31.42 187.547 31.7751C188.903 33.3277 189.7 35.6355 189.864 38.4921C189.89 38.9049 189.906 39.3083 189.906 39.7164Z" fill="#37474F"/>
<path opacity="0.6" d="M187.84 38.4177C187.84 49.6753 178.795 63.9913 168.091 69.6343C165.393 71.0415 162.803 71.8107 160.593 71.8107C159.675 71.8206 158.764 71.661 157.916 71.3417C157.787 71.2197 157.664 71.0837 157.54 70.9477C157.021 70.3408 156.599 69.6695 156.286 68.9541C155.504 67.0612 155.13 65.0477 155.187 63.0251C155.187 62.875 155.187 62.7295 155.187 62.556C155.413 51.3452 164.36 37.3529 174.926 31.7897C175.167 31.663 175.414 31.5364 175.66 31.4191C177.364 30.5504 179.225 29.9674 181.154 29.6977C181.575 29.6439 181.999 29.6172 182.423 29.6179C183.338 29.6107 184.244 29.7702 185.09 30.087C185.229 30.2136 185.358 30.3497 185.481 30.4857C187.023 32.2588 187.84 35.0028 187.84 38.4177Z" fill="white"/>
</svg>
